<svg width="130" height="130" viewBox="0 0 130 130" fill="none" xmlns="http://www.w3.org/2000/svg">
<path d="M122.064 60.9879C122.064 94.6706 94.7585 121.976 61.0758 121.976C27.3931 121.976 0.0878906 94.6706 0.0878906 60.9879C0.0878906 27.3052 27.3931 0 61.0758 0C94.7585 0 122.064 27.3052 122.064 60.9879Z" fill="#BAC7CB"/>
<g filter="url(#filter0_bd_402_10)">
<path d="M121.976 60.9879C121.976 94.6706 94.6706 121.976 60.9879 121.976C27.3052 121.976 0 94.6706 0 60.9879C0 27.3052 27.3052 0 60.9879 0C94.6706 0 121.976 27.3052 121.976 60.9879Z" fill="url(#paint0_linear_402_10)" shape-rendering="crispEdges"/>
</g>
<defs>
<filter id="filter0_bd_402_10" x="-35.4581" y="-35.4581" width="192.892" height="192.892" filterUnits="userSpaceOnUse" color-interpolation-filters="sRGB">
<feFlood flood-opacity="0" result="BackgroundImageFix"/>
<feGaussianBlur in="BackgroundImageFix" stdDeviation="17.7291"/>
<feComposite in2="SourceAlpha" operator="in" result="effect1_backgroundBlur_402_10"/>
<feColorMatrix in="SourceAlpha" type="matrix" values="0 0 0 0 0 0 0 0 0 0 0 0 0 0 0 0 0 0 127 0" result="hardAlpha"/>
<feOffset dx="4" dy="4"/>
<feGaussianBlur stdDeviation="2"/>
<feComposite in2="hardAlpha" operator="out"/>
<feColorMatrix type="matrix" values="0 0 0 0 0 0 0 0 0 0 0 0 0 0 0 0 0 0 0.25 0"/>
<feBlend mode="normal" in2="effect1_backgroundBlur_402_10" result="effect2_dropShadow_402_10"/>
<feBlend mode="normal" in="SourceGraphic" in2="effect2_dropShadow_402_10" result="shape"/>
</filter>
<linearGradient id="paint0_linear_402_10" x1="19.3182" y1="21.3718" x2="128.887" y2="69.1717" gradientUnits="userSpaceOnUse">
<stop stop-color="#E7E6E6"/>
<stop offset="1" stop-color="white" stop-opacity="0"/>
</linearGradient>
</defs>
</svg>
