<svg width="358" height="358" viewBox="0 0 358 358" fill="none" xmlns="http://www.w3.org/2000/svg">
<g filter="url(#filter0_d_4_9991)">
<g clip-path="url(#clip0_4_9991)">
<rect x="77.9863" y="103.276" width="178.47" height="178.47" rx="89.2348" transform="rotate(-8 77.9863 103.276)" fill="url(#paint0_linear_4_9991)"/>
<g filter="url(#filter1_f_4_9991)">
<path opacity="0.8" d="M19.2594 225.371L76.4386 197.844C93.0134 189.865 111.671 187.277 129.792 190.445L163.585 196.353C181.6 199.503 200.148 196.964 216.654 189.091L249.814 173.274C266.22 165.447 284.647 162.891 302.565 165.956L337.58 171.946C355.712 175.047 374.36 172.391 390.906 164.351L422.478 149.01C439.122 140.922 457.892 138.284 476.121 141.471L510.524 147.485C528.753 150.672 547.523 148.034 564.167 139.946L595.579 124.682C612.224 116.594 630.994 113.956 649.223 117.143L711.666 128.059" stroke="#D66C14" stroke-width="9.51838"/>
<path opacity="0.5" d="M-10.6376 258.943L46.5416 231.416C63.1164 223.437 81.7742 220.85 99.8948 224.017L133.688 229.925C151.703 233.075 170.251 230.536 186.757 222.663L219.917 206.846C236.323 199.02 254.75 196.463 272.668 199.528L307.683 205.518C325.815 208.619 344.463 205.964 361.009 197.924L392.581 182.582C409.225 174.494 427.995 171.856 446.224 175.043L480.627 181.057C498.856 184.244 517.626 181.606 534.27 173.518L565.682 158.254C582.327 150.166 601.097 147.528 619.326 150.715L681.769 161.631" stroke="#D66C14" stroke-width="7.13879"/>
<path d="M9.10605 237.611L66.2852 210.084C82.86 202.105 101.518 199.518 119.638 202.686L153.432 208.594C171.446 211.743 189.995 209.205 206.501 201.331L239.66 185.514C256.067 177.688 274.494 175.132 292.411 178.197L327.426 184.186C345.559 187.287 364.207 184.632 380.752 176.592L412.324 161.25C428.969 153.162 447.739 150.524 465.968 153.711L500.37 159.725C518.6 162.912 537.369 160.274 554.014 152.186L585.426 136.922C602.07 128.834 620.84 126.196 639.069 129.383L701.512 140.3" stroke="#D66C14" stroke-width="4.75919"/>
<path d="M-0.933377 245.029L56.2458 217.503C72.8206 209.524 91.4784 206.936 109.599 210.104L143.392 216.012C161.407 219.161 179.955 216.623 196.461 208.75L229.621 192.932C246.028 185.106 264.454 182.55 282.372 185.615L317.387 191.604C335.519 194.706 354.167 192.05 370.713 184.01L402.285 168.668C418.929 160.58 437.699 157.942 455.928 161.129L490.331 167.144C508.56 170.331 527.33 167.693 543.974 159.605L575.387 144.341C592.031 136.252 610.801 133.615 629.03 136.801L691.473 147.718" stroke="#D66C14" stroke-width="2.3796"/>
<path d="M2.76364 247.351L59.9428 219.824C76.5176 211.845 95.1754 209.258 113.296 212.426L147.089 218.334C165.104 221.483 183.652 218.945 200.158 211.071L233.318 195.254C249.725 187.428 268.151 184.872 286.069 187.936L321.084 193.926C339.216 197.027 357.864 194.372 374.41 186.332L405.982 170.99C422.626 162.902 441.396 160.264 459.625 163.451L494.028 169.465C512.257 172.652 531.027 170.014 547.672 161.926L579.084 146.662C595.728 138.574 614.498 135.936 632.727 139.123L695.17 150.04" stroke="#D66C14" stroke-width="1.1898"/>
<path d="M-4.44058 251.775L52.7386 224.249C69.3134 216.269 87.9712 213.682 106.092 216.85L139.885 222.758C157.9 225.907 176.448 223.369 192.954 215.496L226.114 199.678C242.52 191.852 260.947 189.296 278.865 192.361L313.88 198.35C332.012 201.452 350.66 198.796 367.206 190.756L398.778 175.414C415.422 167.326 434.192 164.688 452.421 167.875L486.824 173.89C505.053 177.077 523.823 174.439 540.467 166.351L571.879 151.087C588.524 142.998 607.294 140.361 625.523 143.547L687.966 154.464" stroke="#D66C14" stroke-width="1.1898"/>
<path d="M15.0464 278.423L75.6741 249.906C91.8283 242.307 109.911 239.799 127.523 242.713L165.684 249.028C183.193 251.925 201.169 249.463 217.255 241.965L254.575 224.57C270.563 217.117 288.422 214.639 305.835 217.457L345.251 223.835C362.874 226.686 380.947 224.113 397.074 216.457L432.776 199.508C448.999 191.806 467.191 189.249 484.909 192.181L523.729 198.605C541.447 201.537 559.638 198.98 575.862 191.278L611.408 174.403C627.632 166.701 645.823 164.144 663.541 167.076L729.576 178.003" stroke="#D66C14" stroke-width="0.594899"/>
<path d="M3.09574 284.5L63.7235 255.983C79.8776 248.384 97.96 245.876 115.573 248.79L153.734 255.105C171.243 258.002 189.219 255.54 205.304 248.042L242.624 230.647C258.612 223.194 276.471 220.716 293.885 223.534L333.3 229.912C350.923 232.763 368.996 230.19 385.123 222.534L420.825 205.585C437.049 197.883 455.24 195.326 472.958 198.258L511.778 204.682C529.497 207.614 547.688 205.057 563.912 197.355L599.457 180.48C615.681 172.778 633.872 170.221 651.591 173.153L717.625 184.08" stroke="#D66C14" stroke-width="0.594899"/>
<path d="M17.0224 286.725L77.6502 258.207C93.8043 250.609 111.887 248.1 129.499 251.015L167.66 257.329C185.169 260.227 203.145 257.765 219.231 250.267L256.551 232.872C272.539 225.419 290.398 222.941 307.811 225.759L347.227 232.136C364.85 234.988 382.923 232.415 399.05 224.759L434.752 207.81C450.975 200.108 469.167 197.551 486.885 200.483L525.705 206.906C543.423 209.838 561.614 207.282 577.838 199.58L613.384 182.705C629.608 175.002 647.799 172.446 665.517 175.378L731.552 186.305" stroke="#D66C14" stroke-width="2.3796"/>
<path opacity="0.8" d="M11.5452 290.499L72.1729 261.981C88.3271 254.382 106.409 251.874 124.022 254.788L162.183 261.103C179.692 264 197.668 261.538 213.754 254.041L251.073 236.645C267.062 229.193 284.92 226.714 302.334 229.532L341.75 235.91C359.373 238.761 377.446 236.188 393.573 228.532L429.274 211.583C445.498 203.881 463.689 201.324 481.408 204.256L520.228 210.68C537.946 213.612 556.137 211.055 572.361 203.353L607.907 186.478C624.131 178.776 642.322 176.219 660.04 179.151L726.074 190.078" stroke="#D66C14" stroke-width="4.75919"/>
<path d="M12.1844 299.438L72.8121 270.92C88.9663 263.322 107.049 260.813 124.661 263.728L162.822 270.042C180.331 272.94 198.307 270.478 214.393 262.98L251.713 245.585C267.701 238.132 285.56 235.654 302.973 238.472L342.389 244.849C360.012 247.701 378.085 245.128 394.212 237.472L429.914 220.523C446.137 212.821 464.329 210.264 482.047 213.196L520.867 219.619C538.585 222.551 556.776 219.995 573 212.293L608.546 195.418C624.77 187.715 642.961 185.159 660.679 188.091L726.714 199.018" stroke="#D66C14" stroke-width="1.1898"/>
<path d="M8.2161 220.014L65.3953 192.487C81.9701 184.508 100.628 181.921 118.749 185.089L152.542 190.997C170.556 194.146 189.105 191.608 205.611 183.734L238.77 167.917C255.177 160.091 273.604 157.535 291.521 160.6L326.536 166.589C344.669 169.691 363.317 167.035 379.862 158.995L411.434 143.653C428.079 135.565 446.849 132.927 465.078 136.114L499.48 142.128C517.71 145.315 536.479 142.677 553.124 134.589L584.536 119.325C601.181 111.237 619.95 108.599 638.18 111.786L700.623 122.703" stroke="#D66C14" stroke-width="2.3796"/>
<path d="M0.544284 217.282L57.7235 189.755C74.2983 181.776 92.9561 179.189 111.077 182.356L144.87 188.264C162.885 191.414 181.433 188.876 197.939 181.002L231.098 165.185C247.505 157.359 265.932 154.802 283.85 157.867L318.865 163.857C336.997 166.958 355.645 164.303 372.19 156.263L403.763 140.921C420.407 132.833 439.177 130.195 457.406 133.382L491.809 139.396C510.038 142.583 528.808 139.945 545.452 131.857L576.864 116.593C593.509 108.505 612.279 105.867 630.508 109.054L692.951 119.97" stroke="#D66C14" stroke-width="1.1898"/>
<path opacity="0.5" d="M-32.5515 160.863L28.0762 132.345C44.2304 124.747 62.3128 122.238 79.9253 125.153L118.086 131.467C135.596 134.365 153.572 131.903 169.657 124.405L206.977 107.01C222.965 99.5571 240.824 97.079 258.237 99.8966L297.653 106.274C315.276 109.126 333.349 106.553 349.476 98.8968L385.178 81.9477C401.401 74.2456 419.593 71.689 437.311 74.6209L476.131 81.0445C493.849 83.9764 512.041 81.4198 528.264 73.7177L563.81 56.8426C580.034 49.1404 598.225 46.5838 615.943 49.5157L681.978 60.4426" stroke="#D66C14" stroke-width="2.3796"/>
<path d="M-21.7583 154.526L38.8695 126.008C55.0236 118.41 73.106 115.901 90.7185 118.816L128.88 125.13C146.389 128.027 164.365 125.566 180.45 118.068L217.77 100.673C233.758 93.2199 251.617 90.7418 269.03 93.5595L308.446 99.9372C326.069 102.789 344.142 100.216 360.269 92.5596L395.971 75.6106C412.195 67.9084 430.386 65.3518 448.104 68.2837L486.924 74.7074C504.643 77.6393 522.834 75.0826 539.058 67.3805L574.603 50.5054C590.827 42.8033 609.018 40.2467 626.737 43.1786L692.771 54.1055" stroke="#D66C14" stroke-width="1.1898"/>
<path opacity="0.7" d="M-20.847 133.576L39.7808 105.059C55.9349 97.46 74.0173 94.9516 91.6299 97.866L129.791 104.181C147.3 107.078 165.276 104.616 181.362 97.1183L218.681 79.7229C234.67 72.2703 252.528 69.7923 269.942 72.6099L309.358 78.9877C326.98 81.8391 345.054 79.2662 361.181 71.61L396.882 54.661C413.106 46.9588 431.297 44.4022 449.016 47.3341L487.836 53.7578C505.554 56.6897 523.745 54.1331 539.969 46.4309L575.515 29.5558C591.738 21.8537 609.93 19.2971 627.648 22.229L693.682 33.1559" stroke="#D66C14" stroke-width="1.1898"/>
<path opacity="0.8" d="M-32.9422 169.842L27.6856 141.324C43.8397 133.725 61.9221 131.217 79.5346 134.131L117.696 140.446C135.205 143.343 153.181 140.881 169.266 133.383L206.586 115.988C222.574 108.535 240.433 106.057 257.847 108.875L297.262 115.253C314.885 118.104 332.959 115.531 349.086 107.875L384.787 90.9261C401.011 83.2239 419.202 80.6673 436.92 83.5992L475.74 90.0229C493.459 92.9548 511.65 90.3982 527.874 82.696L563.419 65.8209C579.643 58.1188 597.834 55.5622 615.553 58.4941L681.587 69.421" stroke="#D66C14" stroke-width="4.75919"/>
<path opacity="0.7" d="M-29.6793 184.376L30.9484 155.858C47.1026 148.26 65.185 145.751 82.7975 148.666L120.959 154.98C138.468 157.878 156.444 155.416 172.529 147.918L209.849 130.523C225.837 123.07 243.696 120.592 261.109 123.41L300.525 129.787C318.148 132.639 336.221 130.066 352.348 122.41L388.05 105.461C404.274 97.7585 422.465 95.2019 440.183 98.1338L479.003 104.557C496.722 107.489 514.913 104.933 531.137 97.2306L566.682 80.3555C582.906 72.6533 601.097 70.0967 618.815 73.0286L684.85 83.9555" stroke="#D66C14" stroke-width="2.3796"/>
<path opacity="0.7" d="M-46.032 180.667L14.5957 152.149C30.7499 144.55 48.8323 142.042 66.4448 144.956L104.606 151.271C122.115 154.168 140.091 151.707 156.177 144.209L193.496 126.813C209.485 119.361 227.343 116.883 244.757 119.7L284.173 126.078C301.795 128.93 319.869 126.357 335.996 118.7L371.697 101.751C387.921 94.0493 406.112 91.4926 423.83 94.4245L462.651 100.848C480.369 103.78 498.56 101.223 514.784 93.5213L550.329 76.6463C566.553 68.9441 584.744 66.3875 602.463 69.3194L668.497 80.2463" stroke="#D66C14" stroke-width="2.3796"/>
<path d="M-43.4969 167.045L17.1308 138.527C33.285 130.929 51.3674 128.42 68.9799 131.334L107.141 137.649C124.65 140.546 142.626 138.085 158.712 130.587L196.031 113.191C212.02 105.739 229.878 103.261 247.292 106.078L286.708 112.456C304.331 115.308 322.404 112.735 338.531 105.079L374.232 88.1295C390.456 80.4273 408.647 77.8707 426.366 80.8026L465.186 87.2262C482.904 90.1581 501.095 87.6015 517.319 79.8994L552.865 63.0243C569.088 55.3222 587.28 52.7656 604.998 55.6975L671.032 66.6243" stroke="#D66C14" stroke-width="1.1898"/>
<path opacity="0.7" d="M257.226 206.344C258.188 209.949 247.039 217.445 235.048 221.021C223.057 224.597 212.172 226.628 211.21 223.024C210.248 219.42 219.574 211.544 231.565 207.968C243.555 204.392 256.264 202.74 257.226 206.344Z" fill="#D66C14"/>
<path opacity="0.6" d="M252.154 207.658C252.9 210.452 243.953 216.782 234.657 219.554C225.361 222.327 216.103 224.335 215.357 221.54C214.611 218.746 222.66 212.207 231.956 209.434C241.253 206.662 251.408 204.863 252.154 207.658Z" fill="#F8B375"/>
<path d="M235.295 128.823C235.902 131.651 231.623 136.313 226.89 137.473C222.158 138.634 217.388 139.06 216.781 136.233C216.174 133.405 219.96 128.393 224.692 127.232C229.425 126.072 234.688 125.995 235.295 128.823Z" fill="#F8B375"/>
<path opacity="0.6" d="M231.983 130.062C232.374 131.883 229.618 134.886 226.57 135.634C223.521 136.381 220.449 136.656 220.058 134.834C219.667 133.013 222.105 129.785 225.154 129.037C228.202 128.29 231.592 128.24 231.983 130.062Z" fill="#BA6824"/>
<path opacity="0.5" d="M248.808 208.429C249.278 210.189 241.788 215.407 234.757 217.503C227.726 219.6 219.994 221.964 219.525 220.203C219.055 218.443 226.025 213.225 233.056 211.128C240.086 209.031 248.338 206.668 248.808 208.429Z" fill="#D66C14"/>
<path opacity="0.6" d="M244.589 210.469C244.922 211.717 239.495 215.089 234.509 216.576C229.524 218.063 224.95 219.215 224.617 217.966C224.284 216.718 228.318 213.542 233.303 212.055C238.288 210.569 244.256 209.221 244.589 210.469Z" fill="#91470A"/>
<path opacity="0.6" d="M175.199 185.127C175.117 186.417 168.898 187.883 163.698 187.704C158.499 187.525 153.797 187.16 153.879 185.87C153.961 184.581 158.796 182.856 163.995 183.035C169.194 183.214 175.281 183.838 175.199 185.127Z" fill="#91470A"/>
<path d="M164.613 233.399C164.805 234.676 161.305 237.015 158.115 237.591C154.925 238.166 152.002 238.487 151.809 237.21C151.617 235.932 154.228 233.54 157.418 232.964C160.608 232.388 164.42 232.121 164.613 233.399Z" fill="#CE7422"/>
<path opacity="0.5" d="M170.517 120.525C170.25 119.187 165.713 118.543 160.482 119.586C155.25 120.629 150.143 123.301 150.41 124.639C150.676 125.978 156.297 125.88 161.529 124.837C166.76 123.794 170.784 121.863 170.517 120.525Z" fill="#D66C14"/>
<path opacity="0.4" d="M191.334 111.13C190.721 109.91 188.527 109.314 186.662 110.252C184.797 111.19 183.592 113.611 184.205 114.83C184.818 116.049 187.203 115.973 189.068 115.035C190.932 114.098 191.947 112.349 191.334 111.13Z" fill="#D66C14"/>
<path opacity="0.3" d="M141.387 131.219C141.197 129.867 140.055 128.495 138.907 128.656C137.758 128.818 136.793 130.59 136.983 131.942C137.173 133.293 138.504 134.12 139.652 133.958C140.8 133.797 141.577 132.57 141.387 131.219Z" fill="#D66C14"/>
<path opacity="0.3" d="M119.987 130.691C119.871 129.865 119.183 129.025 118.494 129.122C117.805 129.219 117.228 130.3 117.344 131.126C117.46 131.952 118.26 132.459 118.949 132.362C119.638 132.265 120.103 131.517 119.987 130.691Z" fill="#D66C14"/>
</g>
<g filter="url(#filter2_f_4_9991)">
<path d="M151.223 59.7447C89.1161 148.271 152.083 270.106 260.221 270.647L294.892 270.821L-10.8065 280.193L151.223 59.7447Z" fill="url(#paint1_linear_4_9991)" fill-opacity="0.4"/>
</g>
<g opacity="0.2" filter="url(#filter3_f_4_9991)">
<path d="M209.735 297.608C277.194 213.089 221.877 87.5949 113.979 80.3723L79.3845 78.0566L385.078 87.594L209.735 297.608Z" fill="#FFEAB3"/>
</g>
</g>
</g>
<defs>
<filter id="filter0_d_4_9991" x="54.1904" y="54.6418" width="249.163" height="249.163" filterUnits="userSpaceOnUse" color-interpolation-filters="sRGB">
<feFlood flood-opacity="0" result="BackgroundImageFix"/>
<feColorMatrix in="SourceAlpha" type="matrix" values="0 0 0 0 0 0 0 0 0 0 0 0 0 0 0 0 0 0 127 0" result="hardAlpha"/>
<feOffset/>
<feGaussianBlur stdDeviation="11.898"/>
<feComposite in2="hardAlpha" operator="out"/>
<feColorMatrix type="matrix" values="0 0 0 0 0.404167 0 0 0 0 0.156468 0 0 0 0 0.0690452 0 0 0 0.8 0"/>
<feBlend mode="normal" in2="BackgroundImageFix" result="effect1_dropShadow_4_9991"/>
<feBlend mode="normal" in="SourceGraphic" in2="effect1_dropShadow_4_9991" result="shape"/>
</filter>
<filter id="filter1_f_4_9991" x="-48.0257" y="18.9656" width="799.818" height="282.498" filterUnits="userSpaceOnUse" color-interpolation-filters="sRGB">
<feFlood flood-opacity="0" result="BackgroundImageFix"/>
<feBlend mode="normal" in="SourceGraphic" in2="BackgroundImageFix" result="shape"/>
<feGaussianBlur stdDeviation="0.743624" result="effect1_foregroundBlur_4_9991"/>
</filter>
<filter id="filter2_f_4_9991" x="-22.7045" y="47.8467" width="329.495" height="244.244" filterUnits="userSpaceOnUse" color-interpolation-filters="sRGB">
<feFlood flood-opacity="0" result="BackgroundImageFix"/>
<feBlend mode="normal" in="SourceGraphic" in2="BackgroundImageFix" result="shape"/>
<feGaussianBlur stdDeviation="5.94899" result="effect1_foregroundBlur_4_9991"/>
</filter>
<filter id="filter3_f_4_9991" x="64.512" y="63.1841" width="335.439" height="249.296" filterUnits="userSpaceOnUse" color-interpolation-filters="sRGB">
<feFlood flood-opacity="0" result="BackgroundImageFix"/>
<feBlend mode="normal" in="SourceGraphic" in2="BackgroundImageFix" result="shape"/>
<feGaussianBlur stdDeviation="7.43624" result="effect1_foregroundBlur_4_9991"/>
</filter>
<linearGradient id="paint0_linear_4_9991" x1="252.738" y1="166.93" x2="77.9863" y2="195.634" gradientUnits="userSpaceOnUse">
<stop stop-color="#F4E8D5"/>
<stop offset="1" stop-color="#FC7100"/>
</linearGradient>
<linearGradient id="paint1_linear_4_9991" x1="77.5063" y1="231.302" x2="160.776" y2="200.193" gradientUnits="userSpaceOnUse">
<stop stop-color="#511D04"/>
<stop offset="1" stop-color="#CD7121"/>
</linearGradient>
<clipPath id="clip0_4_9991">
<rect x="77.9863" y="103.276" width="178.47" height="178.47" rx="89.2348" transform="rotate(-8 77.9863 103.276)" fill="white"/>
</clipPath>
</defs>
</svg>
