<svg width="313" height="313" viewBox="0 0 313 313" fill="none" xmlns="http://www.w3.org/2000/svg">
<g filter="url(#filter0_d_4_9989)">
<g clip-path="url(#clip0_4_9989)">
<rect x="72.3311" y="85.6378" width="155.674" height="155.674" rx="77.8368" transform="rotate(-5 72.3311 85.6378)" fill="url(#paint0_linear_4_9989)"/>
<g filter="url(#filter1_i_4_9989)">
<path d="M150 116.362C146.053 118.778 142.506 117.211 140.026 113.161C137.547 109.111 138.736 103.869 142.683 101.453C146.629 99.037 151.347 100.404 153.827 104.455C156.306 108.505 153.946 113.946 150 116.362Z" fill="#E31949"/>
</g>
<g filter="url(#filter2_i_4_9989)">
<path d="M149.82 113.112C147.327 114.638 143.317 114.314 141.792 111.822C140.266 109.329 141.644 104.932 144.137 103.406C146.63 101.881 150.044 103.344 151.57 105.836C153.096 108.329 152.312 111.586 149.82 113.112Z" fill="#C60C38"/>
</g>
<g filter="url(#filter3_i_4_9989)">
<path d="M170.446 226.315C166.813 228.539 160.118 225.318 157.893 221.685C155.669 218.051 157.679 211.641 161.312 209.417C164.946 207.193 169.924 209.325 172.148 212.959C174.372 216.592 174.08 224.09 170.446 226.315Z" fill="#BA1F44"/>
</g>
<g filter="url(#filter4_i_4_9989)">
<path d="M87.4597 255.642C92.2273 257.517 99.4835 252.305 101.359 247.538C103.234 242.77 99.5155 235.598 94.748 233.723C89.9804 231.848 84.5305 235.413 82.6552 240.18C80.7798 244.948 82.6922 253.766 87.4597 255.642Z" fill="#E31949"/>
</g>
<g filter="url(#filter5_i_4_9989)">
<path d="M198.76 136.797C193.34 142.877 189.179 139.694 182.939 134.131C176.699 128.569 173.421 121.48 178.841 115.4C184.261 109.32 192.907 109.222 199.146 114.785C205.386 120.347 204.18 130.717 198.76 136.797Z" fill="#E31949"/>
</g>
<g filter="url(#filter6_i_4_9989)">
<path d="M196.802 131.412C193.378 135.252 188.782 134.141 184.942 130.718C181.102 127.295 178.862 121.791 182.285 117.951C185.709 114.111 192.207 114.838 196.047 118.261C199.887 121.684 200.225 127.572 196.802 131.412Z" fill="#C60C38"/>
</g>
<g filter="url(#filter7_i_4_9989)">
<path d="M212.085 233.937C204.115 235.173 202.937 230.121 201.668 221.941C200.399 213.761 202.354 206.278 210.324 205.041C218.294 203.805 224.966 209.172 226.235 217.352C227.504 225.531 220.055 232.7 212.085 233.937Z" fill="#E31949"/>
</g>
<g filter="url(#filter8_i_4_9989)">
<path d="M213.977 228.587C208.943 229.368 206.128 225.626 205.347 220.592C204.566 215.558 206.318 209.941 211.352 209.16C216.386 208.379 220.896 213.025 221.677 218.059C222.458 223.092 219.011 227.806 213.977 228.587Z" fill="#C60C38"/>
</g>
<g filter="url(#filter9_i_4_9989)">
<path d="M114.333 205.701C112.685 207.549 110.473 207.015 108.625 205.367C106.777 203.719 105.698 201.07 107.346 199.222C108.994 197.374 112.122 197.724 113.97 199.371C115.818 201.019 115.981 203.853 114.333 205.701Z" fill="#BA1F44"/>
</g>
<g filter="url(#filter10_i_4_9989)">
<path d="M230.172 162.978C226.401 164.977 223.146 162.786 221.147 159.015C219.148 155.244 218.995 150.316 222.766 148.317C226.537 146.318 231.382 148.759 233.381 152.531C235.38 156.302 233.943 160.979 230.172 162.978Z" fill="#E31949"/>
</g>
<g opacity="0.5" filter="url(#filter11_i_4_9989)">
<path d="M108.812 145.746C104.814 151.863 107.12 157.536 113.398 161.64C119.675 165.743 128.005 164.112 132.004 157.995C136.002 151.879 134.065 144.368 127.788 140.264C121.511 136.16 112.811 139.63 108.812 145.746Z" fill="#E31949"/>
</g>
<g filter="url(#filter12_i_4_9989)">
<path d="M113.935 146.183C111.409 150.046 111.732 156.39 115.594 158.916C119.457 161.441 126.463 159.471 128.988 155.608C131.514 151.745 129.365 146.286 125.502 143.761C121.639 141.236 116.46 142.32 113.935 146.183Z" fill="#C60C38"/>
</g>
<g filter="url(#filter13_i_4_9989)">
<path d="M116.417 119.146C115.675 120.282 115.769 122.148 116.906 122.891C118.042 123.633 120.102 123.054 120.845 121.918C121.588 120.782 120.956 119.176 119.82 118.433C118.683 117.691 117.16 118.01 116.417 119.146Z" fill="#E31949"/>
</g>
<g filter="url(#filter14_i_4_9989)">
<path d="M82.9137 93.4279C82.171 94.564 82.2657 96.43 83.4019 97.1728C84.5381 97.9155 86.5986 97.3361 87.3413 96.2C88.084 95.0638 87.4519 93.4583 86.3158 92.7155C85.1796 91.9728 83.6565 92.2917 82.9137 93.4279Z" fill="#E31949"/>
</g>
<g filter="url(#filter15_i_4_9989)">
<path d="M225.993 228.63C225.25 229.767 225.345 231.633 226.481 232.375C227.617 233.118 229.678 232.539 230.421 231.403C231.163 230.266 230.531 228.661 229.395 227.918C228.259 227.175 226.736 227.494 225.993 228.63Z" fill="#C60C38"/>
</g>
<g filter="url(#filter16_i_4_9989)">
<path d="M228.449 197.162C227.706 198.298 227.801 200.164 228.937 200.907C230.073 201.65 232.134 201.07 232.876 199.934C233.619 198.798 232.987 197.192 231.851 196.45C230.715 195.707 229.192 196.026 228.449 197.162Z" fill="#C60C38"/>
</g>
<g filter="url(#filter17_i_4_9989)">
<path d="M122.954 237.741C122.211 238.877 122.306 240.743 123.442 241.486C124.578 242.228 126.639 241.649 127.382 240.513C128.124 239.377 127.492 237.771 126.356 237.028C125.22 236.286 123.697 236.604 122.954 237.741Z" fill="#BA1F44"/>
</g>
<g opacity="0.8">
<g filter="url(#filter18_i_4_9989)">
<path d="M101.497 115.009C97.2094 113.816 91.4734 115.965 90.2808 120.252C89.0882 124.539 92.9441 130.401 97.2312 131.594C101.518 132.787 105.907 129.218 107.1 124.931C108.292 120.643 105.784 116.201 101.497 115.009Z" fill="#E31949"/>
</g>
<g filter="url(#filter19_i_4_9989)">
<path d="M98.4428 117.39C96.053 116.725 92.8556 117.923 92.1908 120.312C91.526 122.702 93.6754 125.97 96.0652 126.635C98.455 127.3 100.901 125.31 101.566 122.92C102.231 120.531 100.833 118.054 98.4428 117.39Z" fill="#C60C38"/>
</g>
</g>
<g filter="url(#filter20_i_4_9989)">
<path d="M55.3755 163.963C56.7303 171.702 62.7093 174.461 70.652 173.071C78.5947 171.68 83.9353 164.279 82.5805 156.54C81.2257 148.801 74.1864 144.328 66.2437 145.718C58.3009 147.109 54.0207 156.224 55.3755 163.963Z" fill="#E31949"/>
</g>
<g filter="url(#filter21_i_4_9989)">
<path d="M59.7172 160.542C60.5729 165.43 65.4871 170.174 70.375 169.318C75.2628 168.463 79.315 161.769 78.4594 156.881C77.6037 151.994 71.9059 149.287 67.0181 150.143C62.1303 150.999 58.8615 155.655 59.7172 160.542Z" fill="#C60C38"/>
</g>
<g filter="url(#filter22_i_4_9989)">
<path d="M175.509 78.9728C171.218 85.5378 173.694 91.6273 180.431 96.032C187.169 100.437 196.11 98.6854 200.402 92.1204C204.694 85.5555 202.615 77.4929 195.877 73.0883C189.139 68.6836 179.801 72.4079 175.509 78.9728Z" fill="#E31949"/>
</g>
<g filter="url(#filter23_i_4_9989)">
<path d="M181.007 79.4414C178.297 83.5877 178.643 90.3976 182.789 93.1081C186.935 95.8187 194.455 93.7043 197.165 89.558C199.876 85.4117 197.569 79.5524 193.423 76.8418C189.277 74.1313 183.718 75.2951 181.007 79.4414Z" fill="#C60C38"/>
</g>
<circle cx="143.678" cy="192.653" r="1.87949" transform="rotate(-5 143.678 192.653)" fill="#C60C38"/>
<circle cx="121.548" cy="194.268" r="1.87949" transform="rotate(-5 121.548 194.268)" fill="#BA1F44"/>
<circle cx="134.146" cy="126.824" r="1.87949" transform="rotate(-5 134.146 126.824)" fill="#E31949"/>
<circle cx="140.004" cy="222.538" r="1.87949" transform="rotate(-5 140.004 222.538)" fill="#BA1F44"/>
<circle cx="194.091" cy="229.749" r="1.87949" transform="rotate(-5 194.091 229.749)" fill="#BA1F44"/>
<circle cx="175.297" cy="194.644" r="1.87949" transform="rotate(-5 175.297 194.644)" fill="#E31949"/>
<circle cx="158.856" cy="113.527" r="1.87949" transform="rotate(-5 158.856 113.527)" fill="#E31949"/>
<circle cx="142.072" cy="131.162" r="1.87949" transform="rotate(-5 142.072 131.162)" fill="#E31949"/>
<circle cx="102.464" cy="152.865" r="1.87949" transform="rotate(-5 102.464 152.865)" fill="#BA1F44"/>
<circle cx="214.462" cy="93.0098" r="1.87949" transform="rotate(-5 214.462 93.0098)" fill="#BA1F44"/>
<path d="M-282.005 227.068L-229.26 205.307C-214.671 199.288 -198.582 197.91 -183.182 201.359L-151.923 208.362C-136.614 211.791 -120.621 210.45 -106.096 204.517L-74.4492 191.591C-60.0124 185.695 -44.1227 184.333 -28.8931 187.687L3.44265 194.808C18.855 198.202 34.9388 196.765 49.5057 190.694L79.7346 178.094C94.3889 171.986 110.576 170.57 126.068 174.041L157.877 181.166C173.369 184.637 189.556 183.22 204.211 177.112L234.299 164.572C248.953 158.464 265.14 157.048 280.633 160.518L336.252 172.977" stroke="#A60823" stroke-width="4.1513"/>
<path d="M-293.572 243.707L-240.826 221.946C-226.238 215.927 -210.149 214.548 -194.749 217.998L-163.49 225.001C-148.18 228.43 -132.187 227.088 -117.663 221.156L-86.0158 208.23C-71.5791 202.333 -55.6893 200.971 -40.4597 204.325L-8.124 211.446C7.28833 214.84 23.3721 213.404 37.9391 207.333L68.1679 194.733C82.8223 188.625 99.0094 187.209 114.502 190.679L146.31 197.805C161.803 201.275 177.99 199.859 192.644 193.751L222.732 181.21C237.387 175.103 253.574 173.686 269.066 177.157L324.686 189.616" stroke="#A60823" stroke-width="4.1513"/>
<path d="M-305.817 252.591L-253.071 230.83C-238.483 224.811 -222.394 223.433 -206.994 226.883L-175.735 233.885C-160.425 237.315 -144.432 235.973 -129.908 230.041L-98.2608 217.115C-83.8241 211.218 -67.9344 209.856 -52.7048 213.21L-20.369 220.331C-4.95671 223.725 11.1271 222.289 25.694 216.217L55.9229 203.618C70.5773 197.51 86.7644 196.094 102.257 199.564L134.065 206.69C149.558 210.16 165.745 208.744 180.399 202.636L210.487 190.095C225.142 183.987 241.329 182.571 256.821 186.041L312.44 198.501" stroke="#A60823" stroke-width="6.22694"/>
<path d="M-289.307 232.916L-236.562 211.155C-221.973 205.136 -205.884 203.757 -190.484 207.207L-159.225 214.21C-143.915 217.639 -127.923 216.297 -113.398 210.365L-81.7509 197.439C-67.3142 191.542 -51.4245 190.18 -36.1949 193.534L-3.85914 200.655C11.5532 204.049 27.637 202.613 42.2039 196.541L72.4328 183.942C87.0871 177.834 103.274 176.418 118.767 179.888L150.575 187.014C166.068 190.484 182.255 189.068 196.909 182.96L226.997 170.419C241.651 164.312 257.839 162.895 273.331 166.366L328.95 178.825" stroke="#A60823" stroke-width="2.07565"/>
<path d="M-278.516 237.18L-225.771 215.42C-211.182 209.401 -195.093 208.022 -179.693 211.472L-148.434 218.474C-133.124 221.904 -117.132 220.562 -102.607 214.63L-70.9599 201.704C-56.5232 195.807 -40.6335 194.445 -25.4039 197.799L6.93186 204.92C22.3442 208.314 38.428 206.878 52.9949 200.806L83.2238 188.207C97.8781 182.099 114.065 180.683 129.558 184.153L161.366 191.279C176.859 194.749 193.046 193.333 207.7 187.225L237.788 174.684C252.442 168.576 268.63 167.16 284.122 170.631L339.741 183.09" stroke="#A60823" stroke-width="2.07565"/>
<g opacity="0.3" filter="url(#filter24_f_4_9989)">
<path d="M128.501 54.0935V54.0935C78.4424 134.042 138.853 237.295 233.074 232.829L263.283 231.397L-2.57523 253.517L128.501 54.0935Z" fill="#86041B"/>
</g>
<g opacity="0.3" filter="url(#filter25_f_4_9989)">
<path d="M150.589 267.246V267.246C220.38 203.789 190.102 88.057 98.1761 66.9091L68.7027 60.1286L330.655 110.635L150.589 267.246Z" fill="#FF698D"/>
</g>
</g>
</g>
<defs>
<filter id="filter0_d_4_9989" x="13.9535" y="15.7681" width="285.404" height="285.404" filterUnits="userSpaceOnUse" color-interpolation-filters="sRGB">
<feFlood flood-opacity="0" result="BackgroundImageFix"/>
<feColorMatrix in="SourceAlpha" type="matrix" values="0 0 0 0 0 0 0 0 0 0 0 0 0 0 0 0 0 0 127 0" result="hardAlpha"/>
<feMorphology radius="6.4864" operator="dilate" in="SourceAlpha" result="effect1_dropShadow_4_9989"/>
<feOffset dy="2.07565"/>
<feGaussianBlur stdDeviation="25.9456"/>
<feComposite in2="hardAlpha" operator="out"/>
<feColorMatrix type="matrix" values="0 0 0 0 0.9125 0 0 0 0 0.0114062 0 0 0 0 0.221506 0 0 0 0.4 0"/>
<feBlend mode="normal" in2="BackgroundImageFix" result="effect1_dropShadow_4_9989"/>
<feBlend mode="normal" in="SourceGraphic" in2="effect1_dropShadow_4_9989" result="shape"/>
</filter>
<filter id="filter1_i_4_9989" x="138.732" y="100.257" width="16.1108" height="18.2005" filterUnits="userSpaceOnUse" color-interpolation-filters="sRGB">
<feFlood flood-opacity="0" result="BackgroundImageFix"/>
<feBlend mode="normal" in="SourceGraphic" in2="BackgroundImageFix" result="shape"/>
<feColorMatrix in="SourceAlpha" type="matrix" values="0 0 0 0 0 0 0 0 0 0 0 0 0 0 0 0 0 0 127 0" result="hardAlpha"/>
<feOffset dy="0.950668"/>
<feGaussianBlur stdDeviation="0.950668"/>
<feComposite in2="hardAlpha" operator="arithmetic" k2="-1" k3="1"/>
<feColorMatrix type="matrix" values="0 0 0 0 0.541667 0 0 0 0 0.040625 0 0 0 0 0.142143 0 0 0 1 0"/>
<feBlend mode="normal" in2="shape" result="effect1_innerShadow_4_9989"/>
</filter>
<filter id="filter2_i_4_9989" x="141.153" y="102.785" width="11.196" height="12.2008" filterUnits="userSpaceOnUse" color-interpolation-filters="sRGB">
<feFlood flood-opacity="0" result="BackgroundImageFix"/>
<feBlend mode="normal" in="SourceGraphic" in2="BackgroundImageFix" result="shape"/>
<feColorMatrix in="SourceAlpha" type="matrix" values="0 0 0 0 0 0 0 0 0 0 0 0 0 0 0 0 0 0 127 0" result="hardAlpha"/>
<feOffset dy="0.950668"/>
<feGaussianBlur stdDeviation="0.950668"/>
<feComposite in2="hardAlpha" operator="arithmetic" k2="-1" k3="1"/>
<feColorMatrix type="matrix" values="0 0 0 0 0.541667 0 0 0 0 0.040625 0 0 0 0 0.142143 0 0 0 1 0"/>
<feBlend mode="normal" in2="shape" result="effect1_innerShadow_4_9989"/>
</filter>
<filter id="filter3_i_4_9989" x="156.963" y="208.51" width="16.5954" height="19.4867" filterUnits="userSpaceOnUse" color-interpolation-filters="sRGB">
<feFlood flood-opacity="0" result="BackgroundImageFix"/>
<feBlend mode="normal" in="SourceGraphic" in2="BackgroundImageFix" result="shape"/>
<feColorMatrix in="SourceAlpha" type="matrix" values="0 0 0 0 0 0 0 0 0 0 0 0 0 0 0 0 0 0 127 0" result="hardAlpha"/>
<feOffset dy="0.950668"/>
<feGaussianBlur stdDeviation="0.950668"/>
<feComposite in2="hardAlpha" operator="arithmetic" k2="-1" k3="1"/>
<feColorMatrix type="matrix" values="0 0 0 0 0.541667 0 0 0 0 0.040625 0 0 0 0 0.142143 0 0 0 1 0"/>
<feBlend mode="normal" in2="shape" result="effect1_innerShadow_4_9989"/>
</filter>
<filter id="filter4_i_4_9989" x="81.944" y="233.214" width="19.9103" height="23.7701" filterUnits="userSpaceOnUse" color-interpolation-filters="sRGB">
<feFlood flood-opacity="0" result="BackgroundImageFix"/>
<feBlend mode="normal" in="SourceGraphic" in2="BackgroundImageFix" result="shape"/>
<feColorMatrix in="SourceAlpha" type="matrix" values="0 0 0 0 0 0 0 0 0 0 0 0 0 0 0 0 0 0 127 0" result="hardAlpha"/>
<feOffset dy="0.950668"/>
<feGaussianBlur stdDeviation="0.950668"/>
<feComposite in2="hardAlpha" operator="arithmetic" k2="-1" k3="1"/>
<feColorMatrix type="matrix" values="0 0 0 0 0.541667 0 0 0 0 0.040625 0 0 0 0 0.142143 0 0 0 1 0"/>
<feBlend mode="normal" in2="shape" result="effect1_innerShadow_4_9989"/>
</filter>
<filter id="filter5_i_4_9989" x="176.1" y="110.722" width="27.2457" height="30.3217" filterUnits="userSpaceOnUse" color-interpolation-filters="sRGB">
<feFlood flood-opacity="0" result="BackgroundImageFix"/>
<feBlend mode="normal" in="SourceGraphic" in2="BackgroundImageFix" result="shape"/>
<feColorMatrix in="SourceAlpha" type="matrix" values="0 0 0 0 0 0 0 0 0 0 0 0 0 0 0 0 0 0 127 0" result="hardAlpha"/>
<feOffset dy="0.950668"/>
<feGaussianBlur stdDeviation="0.950668"/>
<feComposite in2="hardAlpha" operator="arithmetic" k2="-1" k3="1"/>
<feColorMatrix type="matrix" values="0 0 0 0 0.541667 0 0 0 0 0.040625 0 0 0 0 0.142143 0 0 0 1 0"/>
<feBlend mode="normal" in2="shape" result="effect1_innerShadow_4_9989"/>
</filter>
<filter id="filter6_i_4_9989" x="180.598" y="115.369" width="18.5657" height="19.4121" filterUnits="userSpaceOnUse" color-interpolation-filters="sRGB">
<feFlood flood-opacity="0" result="BackgroundImageFix"/>
<feBlend mode="normal" in="SourceGraphic" in2="BackgroundImageFix" result="shape"/>
<feColorMatrix in="SourceAlpha" type="matrix" values="0 0 0 0 0 0 0 0 0 0 0 0 0 0 0 0 0 0 127 0" result="hardAlpha"/>
<feOffset dy="0.950668"/>
<feGaussianBlur stdDeviation="0.950668"/>
<feComposite in2="hardAlpha" operator="arithmetic" k2="-1" k3="1"/>
<feColorMatrix type="matrix" values="0 0 0 0 0.541667 0 0 0 0 0.040625 0 0 0 0 0.142143 0 0 0 1 0"/>
<feBlend mode="normal" in2="shape" result="effect1_innerShadow_4_9989"/>
</filter>
<filter id="filter7_i_4_9989" x="201.312" y="204.865" width="25.0648" height="30.2082" filterUnits="userSpaceOnUse" color-interpolation-filters="sRGB">
<feFlood flood-opacity="0" result="BackgroundImageFix"/>
<feBlend mode="normal" in="SourceGraphic" in2="BackgroundImageFix" result="shape"/>
<feColorMatrix in="SourceAlpha" type="matrix" values="0 0 0 0 0 0 0 0 0 0 0 0 0 0 0 0 0 0 127 0" result="hardAlpha"/>
<feOffset dy="0.950668"/>
<feGaussianBlur stdDeviation="0.950668"/>
<feComposite in2="hardAlpha" operator="arithmetic" k2="-1" k3="1"/>
<feColorMatrix type="matrix" values="0 0 0 0 0.541667 0 0 0 0 0.040625 0 0 0 0 0.142143 0 0 0 1 0"/>
<feBlend mode="normal" in2="shape" result="effect1_innerShadow_4_9989"/>
</filter>
<filter id="filter8_i_4_9989" x="205.169" y="209.074" width="16.6184" height="20.5674" filterUnits="userSpaceOnUse" color-interpolation-filters="sRGB">
<feFlood flood-opacity="0" result="BackgroundImageFix"/>
<feBlend mode="normal" in="SourceGraphic" in2="BackgroundImageFix" result="shape"/>
<feColorMatrix in="SourceAlpha" type="matrix" values="0 0 0 0 0 0 0 0 0 0 0 0 0 0 0 0 0 0 127 0" result="hardAlpha"/>
<feOffset dy="0.950668"/>
<feGaussianBlur stdDeviation="0.950668"/>
<feComposite in2="hardAlpha" operator="arithmetic" k2="-1" k3="1"/>
<feColorMatrix type="matrix" values="0 0 0 0 0.541667 0 0 0 0 0.040625 0 0 0 0 0.142143 0 0 0 1 0"/>
<feBlend mode="normal" in2="shape" result="effect1_innerShadow_4_9989"/>
</filter>
<filter id="filter9_i_4_9989" x="106.534" y="197.979" width="8.93591" height="9.83641" filterUnits="userSpaceOnUse" color-interpolation-filters="sRGB">
<feFlood flood-opacity="0" result="BackgroundImageFix"/>
<feBlend mode="normal" in="SourceGraphic" in2="BackgroundImageFix" result="shape"/>
<feColorMatrix in="SourceAlpha" type="matrix" values="0 0 0 0 0 0 0 0 0 0 0 0 0 0 0 0 0 0 127 0" result="hardAlpha"/>
<feOffset dy="0.950668"/>
<feGaussianBlur stdDeviation="0.950668"/>
<feComposite in2="hardAlpha" operator="arithmetic" k2="-1" k3="1"/>
<feColorMatrix type="matrix" values="0 0 0 0 0.541667 0 0 0 0 0.040625 0 0 0 0 0.142143 0 0 0 1 0"/>
<feBlend mode="normal" in2="shape" result="effect1_innerShadow_4_9989"/>
</filter>
<filter id="filter10_i_4_9989" x="219.757" y="147.602" width="14.5255" height="17.0826" filterUnits="userSpaceOnUse" color-interpolation-filters="sRGB">
<feFlood flood-opacity="0" result="BackgroundImageFix"/>
<feBlend mode="normal" in="SourceGraphic" in2="BackgroundImageFix" result="shape"/>
<feColorMatrix in="SourceAlpha" type="matrix" values="0 0 0 0 0 0 0 0 0 0 0 0 0 0 0 0 0 0 127 0" result="hardAlpha"/>
<feOffset dy="0.950668"/>
<feGaussianBlur stdDeviation="0.950668"/>
<feComposite in2="hardAlpha" operator="arithmetic" k2="-1" k3="1"/>
<feColorMatrix type="matrix" values="0 0 0 0 0.541667 0 0 0 0 0.040625 0 0 0 0 0.142143 0 0 0 1 0"/>
<feBlend mode="normal" in2="shape" result="effect1_innerShadow_4_9989"/>
</filter>
<filter id="filter11_i_4_9989" x="106.829" y="138.482" width="27.2607" height="26.371" filterUnits="userSpaceOnUse" color-interpolation-filters="sRGB">
<feFlood flood-opacity="0" result="BackgroundImageFix"/>
<feBlend mode="normal" in="SourceGraphic" in2="BackgroundImageFix" result="shape"/>
<feColorMatrix in="SourceAlpha" type="matrix" values="0 0 0 0 0 0 0 0 0 0 0 0 0 0 0 0 0 0 127 0" result="hardAlpha"/>
<feOffset dy="0.950668"/>
<feGaussianBlur stdDeviation="0.950668"/>
<feComposite in2="hardAlpha" operator="arithmetic" k2="-1" k3="1"/>
<feColorMatrix type="matrix" values="0 0 0 0 0.541667 0 0 0 0 0.040625 0 0 0 0 0.142143 0 0 0 1 0"/>
<feBlend mode="normal" in2="shape" result="effect1_innerShadow_4_9989"/>
</filter>
<filter id="filter12_i_4_9989" x="112.311" y="142.398" width="17.7681" height="18.5984" filterUnits="userSpaceOnUse" color-interpolation-filters="sRGB">
<feFlood flood-opacity="0" result="BackgroundImageFix"/>
<feBlend mode="normal" in="SourceGraphic" in2="BackgroundImageFix" result="shape"/>
<feColorMatrix in="SourceAlpha" type="matrix" values="0 0 0 0 0 0 0 0 0 0 0 0 0 0 0 0 0 0 127 0" result="hardAlpha"/>
<feOffset dy="0.950668"/>
<feGaussianBlur stdDeviation="0.950668"/>
<feComposite in2="hardAlpha" operator="arithmetic" k2="-1" k3="1"/>
<feColorMatrix type="matrix" values="0 0 0 0 0.541667 0 0 0 0 0.040625 0 0 0 0 0.142143 0 0 0 1 0"/>
<feBlend mode="normal" in2="shape" result="effect1_innerShadow_4_9989"/>
</filter>
<filter id="filter13_i_4_9989" x="115.94" y="118.033" width="5.22592" height="6.14122" filterUnits="userSpaceOnUse" color-interpolation-filters="sRGB">
<feFlood flood-opacity="0" result="BackgroundImageFix"/>
<feBlend mode="normal" in="SourceGraphic" in2="BackgroundImageFix" result="shape"/>
<feColorMatrix in="SourceAlpha" type="matrix" values="0 0 0 0 0 0 0 0 0 0 0 0 0 0 0 0 0 0 127 0" result="hardAlpha"/>
<feOffset dy="0.950668"/>
<feGaussianBlur stdDeviation="0.950668"/>
<feComposite in2="hardAlpha" operator="arithmetic" k2="-1" k3="1"/>
<feColorMatrix type="matrix" values="0 0 0 0 0.541667 0 0 0 0 0.040625 0 0 0 0 0.142143 0 0 0 1 0"/>
<feBlend mode="normal" in2="shape" result="effect1_innerShadow_4_9989"/>
</filter>
<filter id="filter14_i_4_9989" x="82.4362" y="92.3146" width="5.22592" height="6.14122" filterUnits="userSpaceOnUse" color-interpolation-filters="sRGB">
<feFlood flood-opacity="0" result="BackgroundImageFix"/>
<feBlend mode="normal" in="SourceGraphic" in2="BackgroundImageFix" result="shape"/>
<feColorMatrix in="SourceAlpha" type="matrix" values="0 0 0 0 0 0 0 0 0 0 0 0 0 0 0 0 0 0 127 0" result="hardAlpha"/>
<feOffset dy="0.950668"/>
<feGaussianBlur stdDeviation="0.950668"/>
<feComposite in2="hardAlpha" operator="arithmetic" k2="-1" k3="1"/>
<feColorMatrix type="matrix" values="0 0 0 0 0.541667 0 0 0 0 0.040625 0 0 0 0 0.142143 0 0 0 1 0"/>
<feBlend mode="normal" in2="shape" result="effect1_innerShadow_4_9989"/>
</filter>
<filter id="filter15_i_4_9989" x="225.516" y="227.517" width="5.22595" height="6.14122" filterUnits="userSpaceOnUse" color-interpolation-filters="sRGB">
<feFlood flood-opacity="0" result="BackgroundImageFix"/>
<feBlend mode="normal" in="SourceGraphic" in2="BackgroundImageFix" result="shape"/>
<feColorMatrix in="SourceAlpha" type="matrix" values="0 0 0 0 0 0 0 0 0 0 0 0 0 0 0 0 0 0 127 0" result="hardAlpha"/>
<feOffset dy="0.950668"/>
<feGaussianBlur stdDeviation="0.950668"/>
<feComposite in2="hardAlpha" operator="arithmetic" k2="-1" k3="1"/>
<feColorMatrix type="matrix" values="0 0 0 0 0.541667 0 0 0 0 0.040625 0 0 0 0 0.142143 0 0 0 1 0"/>
<feBlend mode="normal" in2="shape" result="effect1_innerShadow_4_9989"/>
</filter>
<filter id="filter16_i_4_9989" x="227.971" y="196.049" width="5.22595" height="6.14122" filterUnits="userSpaceOnUse" color-interpolation-filters="sRGB">
<feFlood flood-opacity="0" result="BackgroundImageFix"/>
<feBlend mode="normal" in="SourceGraphic" in2="BackgroundImageFix" result="shape"/>
<feColorMatrix in="SourceAlpha" type="matrix" values="0 0 0 0 0 0 0 0 0 0 0 0 0 0 0 0 0 0 127 0" result="hardAlpha"/>
<feOffset dy="0.950668"/>
<feGaussianBlur stdDeviation="0.950668"/>
<feComposite in2="hardAlpha" operator="arithmetic" k2="-1" k3="1"/>
<feColorMatrix type="matrix" values="0 0 0 0 0.541667 0 0 0 0 0.040625 0 0 0 0 0.142143 0 0 0 1 0"/>
<feBlend mode="normal" in2="shape" result="effect1_innerShadow_4_9989"/>
</filter>
<filter id="filter17_i_4_9989" x="122.476" y="236.627" width="5.22592" height="6.14122" filterUnits="userSpaceOnUse" color-interpolation-filters="sRGB">
<feFlood flood-opacity="0" result="BackgroundImageFix"/>
<feBlend mode="normal" in="SourceGraphic" in2="BackgroundImageFix" result="shape"/>
<feColorMatrix in="SourceAlpha" type="matrix" values="0 0 0 0 0 0 0 0 0 0 0 0 0 0 0 0 0 0 127 0" result="hardAlpha"/>
<feOffset dy="0.950668"/>
<feGaussianBlur stdDeviation="0.950668"/>
<feComposite in2="hardAlpha" operator="arithmetic" k2="-1" k3="1"/>
<feColorMatrix type="matrix" values="0 0 0 0 0.541667 0 0 0 0 0.040625 0 0 0 0 0.142143 0 0 0 1 0"/>
<feBlend mode="normal" in2="shape" result="effect1_innerShadow_4_9989"/>
</filter>
<filter id="filter18_i_4_9989" x="90.0612" y="114.682" width="17.3353" height="18.0952" filterUnits="userSpaceOnUse" color-interpolation-filters="sRGB">
<feFlood flood-opacity="0" result="BackgroundImageFix"/>
<feBlend mode="normal" in="SourceGraphic" in2="BackgroundImageFix" result="shape"/>
<feColorMatrix in="SourceAlpha" type="matrix" values="0 0 0 0 0 0 0 0 0 0 0 0 0 0 0 0 0 0 127 0" result="hardAlpha"/>
<feOffset dy="0.950668"/>
<feGaussianBlur stdDeviation="0.950668"/>
<feComposite in2="hardAlpha" operator="arithmetic" k2="-1" k3="1"/>
<feColorMatrix type="matrix" values="0 0 0 0 0.541667 0 0 0 0 0.040625 0 0 0 0 0.142143 0 0 0 1 0"/>
<feBlend mode="normal" in2="shape" result="effect1_innerShadow_4_9989"/>
</filter>
<filter id="filter19_i_4_9989" x="92.0684" y="117.208" width="9.66318" height="10.5076" filterUnits="userSpaceOnUse" color-interpolation-filters="sRGB">
<feFlood flood-opacity="0" result="BackgroundImageFix"/>
<feBlend mode="normal" in="SourceGraphic" in2="BackgroundImageFix" result="shape"/>
<feColorMatrix in="SourceAlpha" type="matrix" values="0 0 0 0 0 0 0 0 0 0 0 0 0 0 0 0 0 0 127 0" result="hardAlpha"/>
<feOffset dy="0.950668"/>
<feGaussianBlur stdDeviation="0.950668"/>
<feComposite in2="hardAlpha" operator="arithmetic" k2="-1" k3="1"/>
<feColorMatrix type="matrix" values="0 0 0 0 0.541667 0 0 0 0 0.040625 0 0 0 0 0.142143 0 0 0 1 0"/>
<feBlend mode="normal" in2="shape" result="effect1_innerShadow_4_9989"/>
</filter>
<filter id="filter20_i_4_9989" x="55.1277" y="145.466" width="27.6629" height="28.9008" filterUnits="userSpaceOnUse" color-interpolation-filters="sRGB">
<feFlood flood-opacity="0" result="BackgroundImageFix"/>
<feBlend mode="normal" in="SourceGraphic" in2="BackgroundImageFix" result="shape"/>
<feColorMatrix in="SourceAlpha" type="matrix" values="0 0 0 0 0 0 0 0 0 0 0 0 0 0 0 0 0 0 127 0" result="hardAlpha"/>
<feOffset dy="0.950668"/>
<feGaussianBlur stdDeviation="0.950668"/>
<feComposite in2="hardAlpha" operator="arithmetic" k2="-1" k3="1"/>
<feColorMatrix type="matrix" values="0 0 0 0 0.541667 0 0 0 0 0.040625 0 0 0 0 0.142143 0 0 0 1 0"/>
<feBlend mode="normal" in2="shape" result="effect1_innerShadow_4_9989"/>
</filter>
<filter id="filter21_i_4_9989" x="59.5811" y="149.986" width="18.993" height="20.3834" filterUnits="userSpaceOnUse" color-interpolation-filters="sRGB">
<feFlood flood-opacity="0" result="BackgroundImageFix"/>
<feBlend mode="normal" in="SourceGraphic" in2="BackgroundImageFix" result="shape"/>
<feColorMatrix in="SourceAlpha" type="matrix" values="0 0 0 0 0 0 0 0 0 0 0 0 0 0 0 0 0 0 127 0" result="hardAlpha"/>
<feOffset dy="0.950668"/>
<feGaussianBlur stdDeviation="0.950668"/>
<feComposite in2="hardAlpha" operator="arithmetic" k2="-1" k3="1"/>
<feColorMatrix type="matrix" values="0 0 0 0 0.541667 0 0 0 0 0.040625 0 0 0 0 0.142143 0 0 0 1 0"/>
<feBlend mode="normal" in2="shape" result="effect1_innerShadow_4_9989"/>
</filter>
<filter id="filter22_i_4_9989" x="173.38" y="71.1761" width="29.2603" height="28.2356" filterUnits="userSpaceOnUse" color-interpolation-filters="sRGB">
<feFlood flood-opacity="0" result="BackgroundImageFix"/>
<feBlend mode="normal" in="SourceGraphic" in2="BackgroundImageFix" result="shape"/>
<feColorMatrix in="SourceAlpha" type="matrix" values="0 0 0 0 0 0 0 0 0 0 0 0 0 0 0 0 0 0 127 0" result="hardAlpha"/>
<feOffset dy="0.950668"/>
<feGaussianBlur stdDeviation="0.950668"/>
<feComposite in2="hardAlpha" operator="arithmetic" k2="-1" k3="1"/>
<feColorMatrix type="matrix" values="0 0 0 0 0.541667 0 0 0 0 0.040625 0 0 0 0 0.142143 0 0 0 1 0"/>
<feBlend mode="normal" in2="shape" result="effect1_innerShadow_4_9989"/>
</filter>
<filter id="filter23_i_4_9989" x="179.265" y="75.3789" width="19.0714" height="19.8929" filterUnits="userSpaceOnUse" color-interpolation-filters="sRGB">
<feFlood flood-opacity="0" result="BackgroundImageFix"/>
<feBlend mode="normal" in="SourceGraphic" in2="BackgroundImageFix" result="shape"/>
<feColorMatrix in="SourceAlpha" type="matrix" values="0 0 0 0 0 0 0 0 0 0 0 0 0 0 0 0 0 0 127 0" result="hardAlpha"/>
<feOffset dy="0.950668"/>
<feGaussianBlur stdDeviation="0.950668"/>
<feComposite in2="hardAlpha" operator="arithmetic" k2="-1" k3="1"/>
<feColorMatrix type="matrix" values="0 0 0 0 0.541667 0 0 0 0 0.040625 0 0 0 0 0.142143 0 0 0 1 0"/>
<feBlend mode="normal" in2="shape" result="effect1_innerShadow_4_9989"/>
</filter>
<filter id="filter24_f_4_9989" x="-18.1426" y="38.5262" width="296.993" height="230.558" filterUnits="userSpaceOnUse" color-interpolation-filters="sRGB">
<feFlood flood-opacity="0" result="BackgroundImageFix"/>
<feBlend mode="normal" in="SourceGraphic" in2="BackgroundImageFix" result="shape"/>
<feGaussianBlur stdDeviation="7.78368" result="effect1_foregroundBlur_4_9989"/>
</filter>
<filter id="filter25_f_4_9989" x="45.3517" y="36.7775" width="308.655" height="253.819" filterUnits="userSpaceOnUse" color-interpolation-filters="sRGB">
<feFlood flood-opacity="0" result="BackgroundImageFix"/>
<feBlend mode="normal" in="SourceGraphic" in2="BackgroundImageFix" result="shape"/>
<feGaussianBlur stdDeviation="11.6755" result="effect1_foregroundBlur_4_9989"/>
</filter>
<linearGradient id="paint0_linear_4_9989" x1="206.081" y1="110.935" x2="29.2614" y2="278.284" gradientUnits="userSpaceOnUse">
<stop stop-color="#F3164E"/>
<stop offset="1" stop-color="#8B0119"/>
</linearGradient>
<clipPath id="clip0_4_9989">
<rect x="72.3311" y="85.6378" width="155.674" height="155.674" rx="77.8368" transform="rotate(-5 72.3311 85.6378)" fill="white"/>
</clipPath>
</defs>
</svg>
