<svg width="318" height="318" viewBox="0 0 318 318" fill="none" xmlns="http://www.w3.org/2000/svg">
<g filter="url(#filter0_d_4_9988)">
<g clip-path="url(#clip0_4_9988)">
<rect x="74.7327" y="85.3005" width="158.497" height="158.497" rx="79.2484" transform="rotate(-4 74.7327 85.3005)" fill="url(#paint0_linear_4_9988)"/>
<g opacity="0.5" filter="url(#filter1_i_4_9988)">
<path d="M155.408 186.656C151.347 189.045 147.764 187.387 145.312 183.22C142.86 179.053 144.164 173.738 148.224 171.349C152.284 168.96 157.063 170.435 159.515 174.603C161.967 178.77 159.468 184.267 155.408 186.656Z" fill="#C0B1E2"/>
</g>
<g opacity="0.7" filter="url(#filter2_i_4_9988)">
<path d="M155.282 183.344C152.718 184.853 148.642 184.453 147.133 181.888C145.624 179.324 147.105 174.872 149.67 173.363C152.234 171.854 155.684 173.404 157.193 175.969C158.702 178.533 157.847 181.835 155.282 183.344Z" fill="#A896D3"/>
</g>
<g opacity="0.5" filter="url(#filter3_i_4_9988)">
<path d="M172.112 230.25C168.374 232.45 161.616 229.052 159.416 225.314C157.216 221.576 159.376 215.086 163.114 212.886C166.853 210.686 171.882 212.946 174.082 216.684C176.282 220.423 175.851 228.05 172.112 230.25Z" fill="#A896D3"/>
</g>
<g opacity="0.6" filter="url(#filter4_i_4_9988)">
<path d="M87.1125 258.63C91.9325 260.624 99.4118 255.447 101.406 250.627C103.399 245.807 99.7413 238.44 94.9213 236.447C90.1014 234.453 84.4901 237.985 82.4964 242.805C80.5026 247.625 82.2926 256.636 87.1125 258.63Z" fill="#C0B1E2"/>
</g>
<g opacity="0.7" filter="url(#filter5_i_4_9988)">
<path d="M89.5161 254.639C93.0048 256.082 98.4184 252.335 99.8615 248.847C101.305 245.358 98.6569 240.026 95.1682 238.583C91.6794 237.139 87.6179 239.696 86.1748 243.185C84.7317 246.674 86.0273 253.196 89.5161 254.639Z" fill="#A896D3"/>
</g>
<g opacity="0.5" filter="url(#filter6_i_4_9988)">
<path d="M202.526 139.626C196.9 145.719 192.721 142.405 186.467 136.631C180.214 130.858 177.003 123.583 182.628 117.49C188.254 111.397 197.057 111.451 203.31 117.225C209.563 122.998 208.151 133.533 202.526 139.626Z" fill="#C0B1E2"/>
</g>
<g opacity="0.7" filter="url(#filter7_i_4_9988)">
<path d="M200.628 134.109C197.075 137.957 192.415 136.745 188.567 133.192C184.719 129.639 182.537 123.997 186.09 120.148C189.643 116.3 196.245 117.156 200.093 120.709C203.941 124.262 204.181 130.261 200.628 134.109Z" fill="#C0B1E2"/>
</g>
<g opacity="0.5" filter="url(#filter8_i_4_9988)">
<path d="M214.364 238.749C206.229 239.866 205.119 234.702 203.973 226.353C202.826 218.003 204.95 210.42 213.085 209.303C221.22 208.186 227.916 213.768 229.063 222.117C230.21 230.467 222.499 237.632 214.364 238.749Z" fill="#E6D7FF"/>
</g>
<g opacity="0.7" filter="url(#filter9_i_4_9988)">
<path d="M216.385 233.337C211.247 234.042 208.448 230.183 207.742 225.045C207.037 219.907 208.92 214.219 214.058 213.514C219.196 212.808 223.706 217.618 224.411 222.756C225.117 227.894 221.523 232.631 216.385 233.337Z" fill="#C0B1E2"/>
</g>
<g opacity="0.7" filter="url(#filter10_i_4_9988)">
<path d="M115.356 208.269C113.646 210.121 111.404 209.537 109.551 207.827C107.699 206.117 106.649 203.401 108.359 201.549C110.069 199.697 113.247 200.109 115.099 201.819C116.951 203.529 117.066 206.417 115.356 208.269Z" fill="#A896D3"/>
</g>
<g opacity="0.7" filter="url(#filter11_i_4_9988)">
<path d="M234.037 166.836C230.163 168.804 226.888 166.516 224.92 162.641C222.953 158.767 222.884 153.747 226.758 151.78C230.633 149.812 235.522 152.383 237.49 156.258C239.458 160.132 237.912 164.868 234.037 166.836Z" fill="#E6D7FF"/>
</g>
<g opacity="0.7" filter="url(#filter12_i_4_9988)">
<path d="M240.284 142.567C236.41 144.535 233.135 142.247 231.167 138.372C229.2 134.497 229.131 129.478 233.005 127.51C236.88 125.543 241.769 128.114 243.737 131.988C245.705 135.863 244.159 140.599 240.284 142.567Z" fill="#E6D7FF"/>
</g>
<g opacity="0.5" filter="url(#filter13_i_4_9988)">
<path d="M110.802 147.138C106.623 153.293 108.87 159.109 115.187 163.398C121.504 167.687 130.013 166.175 134.192 160.019C138.371 153.864 136.533 146.183 130.216 141.894C123.899 137.605 114.981 140.983 110.802 147.138Z" fill="#C0B1E2"/>
</g>
<g opacity="0.7" filter="url(#filter14_i_4_9988)">
<path d="M116.008 147.673C113.369 151.561 113.584 158.025 117.472 160.665C121.359 163.304 128.526 161.423 131.165 157.536C133.805 153.648 131.714 148.053 127.826 145.413C123.939 142.774 118.648 143.786 116.008 147.673Z" fill="#A896D3"/>
</g>
<g opacity="0.7" filter="url(#filter15_i_4_9988)">
<path d="M86.5154 157.573C85.703 158.769 85.7693 160.759 86.9658 161.571C88.1624 162.384 90.3683 161.805 91.1807 160.608C91.9931 159.412 91.3495 157.689 90.1529 156.877C88.9564 156.065 87.3278 156.376 86.5154 157.573Z" fill="#A896D3"/>
</g>
<g opacity="0.7" filter="url(#filter16_i_4_9988)">
<path d="M119.016 120.194C118.24 121.338 118.303 123.239 119.447 124.015C120.59 124.792 122.698 124.238 123.474 123.095C124.251 121.952 123.636 120.306 122.492 119.53C121.349 118.753 119.793 119.051 119.016 120.194Z" fill="#C0B1E2"/>
</g>
<g opacity="0.7" filter="url(#filter17_i_4_9988)">
<path d="M85.3672 93.4186C84.5909 94.562 84.6542 96.4633 85.7976 97.2396C86.941 98.0159 89.0488 97.4627 89.8251 96.3193C90.6014 95.1759 89.9865 93.5302 88.8431 92.7539C87.6997 91.9776 86.1435 92.2752 85.3672 93.4186Z" fill="#A896D3"/>
</g>
<g opacity="0.7" filter="url(#filter18_i_4_9988)">
<path d="M228.617 233.595C227.84 234.738 227.904 236.639 229.047 237.415C230.19 238.192 232.298 237.639 233.075 236.495C233.851 235.352 233.236 233.706 232.092 232.93C230.949 232.154 229.393 232.451 228.617 233.595Z" fill="#C0B1E2"/>
</g>
<g opacity="0.7" filter="url(#filter19_i_4_9988)">
<path d="M231.676 201.604C230.899 202.747 230.963 204.648 232.106 205.425C233.25 206.201 235.357 205.648 236.134 204.504C236.91 203.361 236.295 201.715 235.152 200.939C234.008 200.163 232.452 200.46 231.676 201.604Z" fill="#C0B1E2"/>
</g>
<g opacity="0.7" filter="url(#filter20_i_4_9988)">
<path d="M123.563 241.038C122.787 242.181 122.85 244.082 123.993 244.859C125.137 245.635 127.245 245.082 128.021 243.938C128.797 242.795 128.182 241.149 127.039 240.373C125.896 239.597 124.339 239.894 123.563 241.038Z" fill="#A896D3"/>
</g>
<g opacity="0.8">
<g opacity="0.5" filter="url(#filter21_i_4_9988)">
<path d="M188.478 165.147C178.246 171.081 177.453 180.963 183.544 191.464C189.634 201.965 202.866 205.668 213.098 199.733C223.33 193.799 225.995 181.529 219.905 171.027C213.814 160.526 198.71 159.213 188.478 165.147Z" fill="#E6D7FF"/>
</g>
<g opacity="0.7" filter="url(#filter22_i_4_9988)">
<path d="M195.567 169.505C189.105 173.253 184.954 182.661 188.702 189.124C192.45 195.586 204.013 197.835 210.476 194.087C216.938 190.339 217.803 180.882 214.055 174.42C210.307 167.958 202.03 165.757 195.567 169.505Z" fill="#C0B1E2"/>
</g>
<g opacity="0.7" filter="url(#filter23_i_4_9988)">
<path d="M194.843 175.966C191.241 178.055 188.927 183.299 191.016 186.902C193.105 190.504 199.551 191.758 203.153 189.668C206.756 187.579 207.237 182.308 205.148 178.705C203.059 175.103 198.445 173.876 194.843 175.966Z" fill="#A896D3"/>
</g>
<g opacity="0.7" filter="url(#filter24_i_4_9988)">
<path d="M178.666 148.36C176.314 149.724 174.803 153.149 176.167 155.501C177.532 157.853 181.74 158.671 184.092 157.307C186.444 155.943 186.759 152.501 185.395 150.149C184.031 147.797 181.018 146.996 178.666 148.36Z" fill="#C0B1E2"/>
</g>
</g>
<g opacity="0.8">
<g opacity="0.5" filter="url(#filter25_i_4_9988)">
<path d="M164.056 74.95C162.044 62.4519 152.473 57.8748 139.646 59.9391C126.819 62.0033 118.051 73.8085 120.063 86.3065C122.074 98.8046 133.316 106.168 146.143 104.103C158.97 102.039 166.067 87.4481 164.056 74.95Z" fill="#E6D7FF"/>
</g>
<g opacity="0.7" filter="url(#filter26_i_4_9988)">
<path d="M156.985 80.3649C155.715 72.4714 147.902 64.7201 140.009 65.9905C132.115 67.2608 125.439 77.9547 126.709 85.8482C127.979 93.7417 137.099 98.2279 144.992 96.9575C152.886 95.6872 158.255 88.2584 156.985 80.3649Z" fill="#C0B1E2"/>
</g>
<g opacity="0.7" filter="url(#filter27_i_4_9988)">
<path d="M150.807 77.1666C150.098 72.7665 145.744 68.4457 141.344 69.1538C136.944 69.8619 133.222 75.823 133.93 80.2231C134.638 84.6232 139.722 87.1239 144.122 86.4158C148.522 85.7077 151.515 81.5667 150.807 77.1666Z" fill="#A896D3"/>
</g>
</g>
<g opacity="0.8">
<g opacity="0.5" filter="url(#filter28_i_4_9988)">
<path d="M102.872 110.777C95.996 108.734 91.3075 112.497 89.2109 119.555C87.1142 126.612 90.9891 133.989 97.8655 136.032C104.742 138.075 111.263 134.143 113.36 127.085C115.457 120.028 109.749 112.819 102.872 110.777Z" fill="#E6D7FF"/>
</g>
<g opacity="0.7" filter="url(#filter29_i_4_9988)">
<path d="M103.901 115.718C99.5576 114.427 93.6803 116.513 92.3901 120.856C91.0998 125.199 94.9209 131.235 99.2639 132.525C103.607 133.816 108.138 130.261 109.428 125.918C110.718 121.574 108.244 117.008 103.901 115.718Z" fill="#C0B1E2"/>
</g>
<g opacity="0.7" filter="url(#filter30_i_4_9988)">
<path d="M100.75 118.087C98.3288 117.368 95.0526 118.53 94.3334 120.951C93.6142 123.372 95.7441 126.737 98.1651 127.456C100.586 128.176 103.112 126.194 103.831 123.773C104.55 121.352 103.171 118.806 100.75 118.087Z" fill="#A896D3"/>
</g>
</g>
<g opacity="0.5" filter="url(#filter31_i_4_9988)">
<path d="M65.6445 187.897C66.8861 195.799 72.9236 198.714 81.0338 197.439C89.1441 196.165 94.7122 188.726 93.4705 180.824C92.2289 172.921 85.1425 168.242 77.0323 169.517C68.922 170.791 64.4028 179.994 65.6445 187.897Z" fill="#E6D7FF"/>
</g>
<g opacity="0.7" filter="url(#filter32_i_4_9988)">
<path d="M70.1251 184.492C70.9093 189.482 75.8276 194.399 80.8185 193.615C85.8094 192.83 90.0534 186.089 89.2692 181.098C88.485 176.107 82.7329 173.251 77.742 174.035C72.7511 174.819 69.3409 179.501 70.1251 184.492Z" fill="#C0B1E2"/>
</g>
<g opacity="0.5" filter="url(#filter33_i_4_9988)">
<path d="M179.884 80.349C175.399 86.9558 177.811 93.1987 184.592 97.8023C191.372 102.406 200.505 100.782 204.991 94.1753C209.476 87.5686 207.503 79.3241 200.723 74.7206C193.942 70.117 184.37 73.7423 179.884 80.349Z" fill="#C0B1E2"/>
</g>
<g opacity="0.7" filter="url(#filter34_i_4_9988)">
<path d="M185.473 80.9238C182.64 85.0964 182.871 92.0349 187.044 94.8678C191.216 97.7008 198.909 95.682 201.742 91.5093C204.575 87.3366 202.331 81.331 198.158 78.498C193.985 75.6651 188.306 76.7511 185.473 80.9238Z" fill="#A896D3"/>
</g>
<circle cx="145.461" cy="195.507" r="1.91357" transform="rotate(-4 145.461 195.507)" fill="#A896D3"/>
<circle cx="141.523" cy="139.194" r="1.91357" transform="rotate(-4 141.523 139.194)" fill="#C0B1E2"/>
<circle cx="121.799" cy="180.947" r="1.91357" transform="rotate(-4 121.799 180.947)" fill="#A896D3"/>
<circle cx="136.927" cy="128.326" r="1.91357" transform="rotate(-4 136.927 128.326)" fill="#C0B1E2"/>
<circle cx="141.19" cy="225.865" r="1.91357" transform="rotate(-4 141.19 225.865)" fill="#A896D3"/>
<circle cx="196.121" cy="234.166" r="1.91357" transform="rotate(-4 196.121 234.166)" fill="#A896D3"/>
<circle cx="176.876" cy="187.556" r="1.91357" transform="rotate(-4 176.876 187.556)" fill="#C0B1E2"/>
<circle cx="162.317" cy="115.228" r="1.91357" transform="rotate(-4 162.317 115.228)" fill="#C0B1E2"/>
<circle cx="144.918" cy="132.882" r="1.91357" transform="rotate(-4 144.918 132.882)" fill="#C0B1E2"/>
<circle cx="104.213" cy="154.272" r="1.91357" transform="rotate(-4 104.213 154.272)" fill="#A896D3"/>
<circle cx="219.289" cy="95.3306" r="1.91357" transform="rotate(-4 219.289 95.3306)" fill="#A896D3"/>
<g opacity="0.8">
<g opacity="0.5" filter="url(#filter35_i_4_9988)">
<path d="M67.3135 120.448C62.4455 119.002 59.1263 121.666 57.642 126.663C56.1578 131.659 58.9009 136.881 63.7689 138.328C68.637 139.774 73.2537 136.99 74.738 131.994C76.2223 126.998 72.1816 121.895 67.3135 120.448Z" fill="#E6D7FF"/>
</g>
</g>
<g filter="url(#filter36_f_4_9988)">
<path d="M132.473 54.1872V54.1872C80.0938 134.683 139.756 240.866 235.75 237.995L266.528 237.074L-4.50341 254.867L132.473 54.1872Z" fill="url(#paint1_linear_4_9988)" fill-opacity="0.4"/>
</g>
<g opacity="0.2" filter="url(#filter37_f_4_9988)">
<path d="M151.171 271.564V271.564C223.344 208.207 194.578 89.8558 101.375 66.6942L71.4923 59.2681L337.257 115.337L151.171 271.564Z" fill="white"/>
</g>
</g>
</g>
<defs>
<filter id="filter0_d_4_9988" x="43.0334" y="43.6017" width="232.565" height="232.565" filterUnits="userSpaceOnUse" color-interpolation-filters="sRGB">
<feFlood flood-opacity="0" result="BackgroundImageFix"/>
<feColorMatrix in="SourceAlpha" type="matrix" values="0 0 0 0 0 0 0 0 0 0 0 0 0 0 0 0 0 0 127 0" result="hardAlpha"/>
<feMorphology radius="5.28322" operator="dilate" in="SourceAlpha" result="effect1_dropShadow_4_9988"/>
<feOffset dy="1.05664"/>
<feGaussianBlur stdDeviation="13.2081"/>
<feComposite in2="hardAlpha" operator="out"/>
<feColorMatrix type="matrix" values="0 0 0 0 0.651 0 0 0 0 0.561337 0 0 0 0 0.904167 0 0 0 0.3 0"/>
<feBlend mode="normal" in2="BackgroundImageFix" result="effect1_dropShadow_4_9988"/>
<feBlend mode="normal" in="SourceGraphic" in2="effect1_dropShadow_4_9988" result="shape"/>
</filter>
<filter id="filter1_i_4_9988" x="144.074" y="170.204" width="16.4113" height="18.5214" filterUnits="userSpaceOnUse" color-interpolation-filters="sRGB">
<feFlood flood-opacity="0" result="BackgroundImageFix"/>
<feBlend mode="normal" in="SourceGraphic" in2="BackgroundImageFix" result="shape"/>
<feColorMatrix in="SourceAlpha" type="matrix" values="0 0 0 0 0 0 0 0 0 0 0 0 0 0 0 0 0 0 127 0" result="hardAlpha"/>
<feOffset dy="0.967909"/>
<feGaussianBlur stdDeviation="0.967909"/>
<feComposite in2="hardAlpha" operator="arithmetic" k2="-1" k3="1"/>
<feColorMatrix type="matrix" values="0 0 0 0 0.356863 0 0 0 0 0.262745 0 0 0 0 0.623529 0 0 0 0.5 0"/>
<feBlend mode="normal" in2="shape" result="effect1_innerShadow_4_9988"/>
</filter>
<filter id="filter2_i_4_9988" x="146.527" y="172.77" width="11.4117" height="12.4217" filterUnits="userSpaceOnUse" color-interpolation-filters="sRGB">
<feFlood flood-opacity="0" result="BackgroundImageFix"/>
<feBlend mode="normal" in="SourceGraphic" in2="BackgroundImageFix" result="shape"/>
<feColorMatrix in="SourceAlpha" type="matrix" values="0 0 0 0 0 0 0 0 0 0 0 0 0 0 0 0 0 0 127 0" result="hardAlpha"/>
<feOffset dy="0.967909"/>
<feGaussianBlur stdDeviation="0.967909"/>
<feComposite in2="hardAlpha" operator="arithmetic" k2="-1" k3="1"/>
<feColorMatrix type="matrix" values="0 0 0 0 0.356863 0 0 0 0 0.262745 0 0 0 0 0.623529 0 0 0 0.5 0"/>
<feBlend mode="normal" in2="shape" result="effect1_innerShadow_4_9988"/>
</filter>
<filter id="filter3_i_4_9988" x="158.532" y="212.021" width="16.8834" height="19.8921" filterUnits="userSpaceOnUse" color-interpolation-filters="sRGB">
<feFlood flood-opacity="0" result="BackgroundImageFix"/>
<feBlend mode="normal" in="SourceGraphic" in2="BackgroundImageFix" result="shape"/>
<feColorMatrix in="SourceAlpha" type="matrix" values="0 0 0 0 0 0 0 0 0 0 0 0 0 0 0 0 0 0 127 0" result="hardAlpha"/>
<feOffset dy="0.967909"/>
<feGaussianBlur stdDeviation="0.967909"/>
<feComposite in2="hardAlpha" operator="arithmetic" k2="-1" k3="1"/>
<feColorMatrix type="matrix" values="0 0 0 0 0.356863 0 0 0 0 0.262745 0 0 0 0 0.623529 0 0 0 0.5 0"/>
<feBlend mode="normal" in2="shape" result="effect1_innerShadow_4_9988"/>
</filter>
<filter id="filter4_i_4_9988" x="81.6941" y="235.879" width="20.2666" height="24.1571" filterUnits="userSpaceOnUse" color-interpolation-filters="sRGB">
<feFlood flood-opacity="0" result="BackgroundImageFix"/>
<feBlend mode="normal" in="SourceGraphic" in2="BackgroundImageFix" result="shape"/>
<feColorMatrix in="SourceAlpha" type="matrix" values="0 0 0 0 0 0 0 0 0 0 0 0 0 0 0 0 0 0 127 0" result="hardAlpha"/>
<feOffset dy="0.967909"/>
<feGaussianBlur stdDeviation="0.967909"/>
<feComposite in2="hardAlpha" operator="arithmetic" k2="-1" k3="1"/>
<feColorMatrix type="matrix" values="0 0 0 0 0.356863 0 0 0 0 0.262745 0 0 0 0 0.623529 0 0 0 0.5 0"/>
<feBlend mode="normal" in2="shape" result="effect1_innerShadow_4_9988"/>
</filter>
<filter id="filter5_i_4_9988" x="85.5941" y="238.172" width="14.6693" height="17.7525" filterUnits="userSpaceOnUse" color-interpolation-filters="sRGB">
<feFlood flood-opacity="0" result="BackgroundImageFix"/>
<feBlend mode="normal" in="SourceGraphic" in2="BackgroundImageFix" result="shape"/>
<feColorMatrix in="SourceAlpha" type="matrix" values="0 0 0 0 0 0 0 0 0 0 0 0 0 0 0 0 0 0 127 0" result="hardAlpha"/>
<feOffset dy="0.967909"/>
<feGaussianBlur stdDeviation="0.967909"/>
<feComposite in2="hardAlpha" operator="arithmetic" k2="-1" k3="1"/>
<feColorMatrix type="matrix" values="0 0 0 0 0.356863 0 0 0 0 0.262745 0 0 0 0 0.623529 0 0 0 0.5 0"/>
<feBlend mode="normal" in2="shape" result="effect1_innerShadow_4_9988"/>
</filter>
<filter id="filter6_i_4_9988" x="179.718" y="112.907" width="27.6919" height="30.9391" filterUnits="userSpaceOnUse" color-interpolation-filters="sRGB">
<feFlood flood-opacity="0" result="BackgroundImageFix"/>
<feBlend mode="normal" in="SourceGraphic" in2="BackgroundImageFix" result="shape"/>
<feColorMatrix in="SourceAlpha" type="matrix" values="0 0 0 0 0 0 0 0 0 0 0 0 0 0 0 0 0 0 127 0" result="hardAlpha"/>
<feOffset dy="0.967909"/>
<feGaussianBlur stdDeviation="0.967909"/>
<feComposite in2="hardAlpha" operator="arithmetic" k2="-1" k3="1"/>
<feColorMatrix type="matrix" values="0 0 0 0 0.356863 0 0 0 0 0.262745 0 0 0 0 0.623529 0 0 0 0.5 0"/>
<feBlend mode="normal" in2="shape" result="effect1_innerShadow_4_9988"/>
</filter>
<filter id="filter7_i_4_9988" x="184.292" y="117.628" width="18.8514" height="19.8225" filterUnits="userSpaceOnUse" color-interpolation-filters="sRGB">
<feFlood flood-opacity="0" result="BackgroundImageFix"/>
<feBlend mode="normal" in="SourceGraphic" in2="BackgroundImageFix" result="shape"/>
<feColorMatrix in="SourceAlpha" type="matrix" values="0 0 0 0 0 0 0 0 0 0 0 0 0 0 0 0 0 0 127 0" result="hardAlpha"/>
<feOffset dy="0.967909"/>
<feGaussianBlur stdDeviation="0.967909"/>
<feComposite in2="hardAlpha" operator="arithmetic" k2="-1" k3="1"/>
<feColorMatrix type="matrix" values="0 0 0 0 0.356863 0 0 0 0 0.262745 0 0 0 0 0.623529 0 0 0 0.5 0"/>
<feBlend mode="normal" in2="shape" result="effect1_innerShadow_4_9988"/>
</filter>
<filter id="filter8_i_4_9988" x="203.684" y="209.161" width="25.4923" height="30.7073" filterUnits="userSpaceOnUse" color-interpolation-filters="sRGB">
<feFlood flood-opacity="0" result="BackgroundImageFix"/>
<feBlend mode="normal" in="SourceGraphic" in2="BackgroundImageFix" result="shape"/>
<feColorMatrix in="SourceAlpha" type="matrix" values="0 0 0 0 0 0 0 0 0 0 0 0 0 0 0 0 0 0 127 0" result="hardAlpha"/>
<feOffset dy="0.967909"/>
<feGaussianBlur stdDeviation="0.967909"/>
<feComposite in2="hardAlpha" operator="arithmetic" k2="-1" k3="1"/>
<feColorMatrix type="matrix" values="0 0 0 0 0.356863 0 0 0 0 0.262745 0 0 0 0 0.623529 0 0 0 0.5 0"/>
<feBlend mode="normal" in2="shape" result="effect1_innerShadow_4_9988"/>
</filter>
<filter id="filter9_i_4_9988" x="207.6" y="213.445" width="16.8997" height="20.9435" filterUnits="userSpaceOnUse" color-interpolation-filters="sRGB">
<feFlood flood-opacity="0" result="BackgroundImageFix"/>
<feBlend mode="normal" in="SourceGraphic" in2="BackgroundImageFix" result="shape"/>
<feColorMatrix in="SourceAlpha" type="matrix" values="0 0 0 0 0 0 0 0 0 0 0 0 0 0 0 0 0 0 127 0" result="hardAlpha"/>
<feOffset dy="0.967909"/>
<feGaussianBlur stdDeviation="0.967909"/>
<feComposite in2="hardAlpha" operator="arithmetic" k2="-1" k3="1"/>
<feColorMatrix type="matrix" values="0 0 0 0 0.356863 0 0 0 0 0.262745 0 0 0 0 0.623529 0 0 0 0.5 0"/>
<feBlend mode="normal" in2="shape" result="effect1_innerShadow_4_9988"/>
</filter>
<filter id="filter10_i_4_9988" x="107.494" y="200.336" width="9.07346" height="10.0429" filterUnits="userSpaceOnUse" color-interpolation-filters="sRGB">
<feFlood flood-opacity="0" result="BackgroundImageFix"/>
<feBlend mode="normal" in="SourceGraphic" in2="BackgroundImageFix" result="shape"/>
<feColorMatrix in="SourceAlpha" type="matrix" values="0 0 0 0 0 0 0 0 0 0 0 0 0 0 0 0 0 0 127 0" result="hardAlpha"/>
<feOffset dy="0.967909"/>
<feGaussianBlur stdDeviation="0.967909"/>
<feComposite in2="hardAlpha" operator="arithmetic" k2="-1" k3="1"/>
<feColorMatrix type="matrix" values="0 0 0 0 0.356863 0 0 0 0 0.262745 0 0 0 0 0.623529 0 0 0 0.5 0"/>
<feBlend mode="normal" in2="shape" result="effect1_innerShadow_4_9988"/>
</filter>
<filter id="filter11_i_4_9988" x="223.597" y="151.102" width="14.7471" height="17.4212" filterUnits="userSpaceOnUse" color-interpolation-filters="sRGB">
<feFlood flood-opacity="0" result="BackgroundImageFix"/>
<feBlend mode="normal" in="SourceGraphic" in2="BackgroundImageFix" result="shape"/>
<feColorMatrix in="SourceAlpha" type="matrix" values="0 0 0 0 0 0 0 0 0 0 0 0 0 0 0 0 0 0 127 0" result="hardAlpha"/>
<feOffset dy="0.967909"/>
<feGaussianBlur stdDeviation="0.967909"/>
<feComposite in2="hardAlpha" operator="arithmetic" k2="-1" k3="1"/>
<feColorMatrix type="matrix" values="0 0 0 0 0.356863 0 0 0 0 0.262745 0 0 0 0 0.623529 0 0 0 0.5 0"/>
<feBlend mode="normal" in2="shape" result="effect1_innerShadow_4_9988"/>
</filter>
<filter id="filter12_i_4_9988" x="229.844" y="126.833" width="14.7471" height="17.4212" filterUnits="userSpaceOnUse" color-interpolation-filters="sRGB">
<feFlood flood-opacity="0" result="BackgroundImageFix"/>
<feBlend mode="normal" in="SourceGraphic" in2="BackgroundImageFix" result="shape"/>
<feColorMatrix in="SourceAlpha" type="matrix" values="0 0 0 0 0 0 0 0 0 0 0 0 0 0 0 0 0 0 127 0" result="hardAlpha"/>
<feOffset dy="0.967909"/>
<feGaussianBlur stdDeviation="0.967909"/>
<feComposite in2="hardAlpha" operator="arithmetic" k2="-1" k3="1"/>
<feColorMatrix type="matrix" values="0 0 0 0 0.356863 0 0 0 0 0.262745 0 0 0 0 0.623529 0 0 0 0.5 0"/>
<feBlend mode="normal" in2="shape" result="effect1_innerShadow_4_9988"/>
</filter>
<filter id="filter13_i_4_9988" x="108.674" y="139.97" width="27.764" height="26.8364" filterUnits="userSpaceOnUse" color-interpolation-filters="sRGB">
<feFlood flood-opacity="0" result="BackgroundImageFix"/>
<feBlend mode="normal" in="SourceGraphic" in2="BackgroundImageFix" result="shape"/>
<feColorMatrix in="SourceAlpha" type="matrix" values="0 0 0 0 0 0 0 0 0 0 0 0 0 0 0 0 0 0 127 0" result="hardAlpha"/>
<feOffset dy="0.967909"/>
<feGaussianBlur stdDeviation="0.967909"/>
<feComposite in2="hardAlpha" operator="arithmetic" k2="-1" k3="1"/>
<feColorMatrix type="matrix" values="0 0 0 0 0.356863 0 0 0 0 0.262745 0 0 0 0 0.623529 0 0 0 0.5 0"/>
<feBlend mode="normal" in2="shape" result="effect1_innerShadow_4_9988"/>
</filter>
<filter id="filter14_i_4_9988" x="114.252" y="143.944" width="18.0919" height="18.9164" filterUnits="userSpaceOnUse" color-interpolation-filters="sRGB">
<feFlood flood-opacity="0" result="BackgroundImageFix"/>
<feBlend mode="normal" in="SourceGraphic" in2="BackgroundImageFix" result="shape"/>
<feColorMatrix in="SourceAlpha" type="matrix" values="0 0 0 0 0 0 0 0 0 0 0 0 0 0 0 0 0 0 127 0" result="hardAlpha"/>
<feOffset dy="0.967909"/>
<feGaussianBlur stdDeviation="0.967909"/>
<feComposite in2="hardAlpha" operator="arithmetic" k2="-1" k3="1"/>
<feColorMatrix type="matrix" values="0 0 0 0 0.356863 0 0 0 0 0.262745 0 0 0 0 0.623529 0 0 0 0.5 0"/>
<feBlend mode="normal" in2="shape" result="effect1_innerShadow_4_9988"/>
</filter>
<filter id="filter15_i_4_9988" x="85.9747" y="156.425" width="5.56866" height="5.961" filterUnits="userSpaceOnUse" color-interpolation-filters="sRGB">
<feFlood flood-opacity="0" result="BackgroundImageFix"/>
<feBlend mode="normal" in="SourceGraphic" in2="BackgroundImageFix" result="shape"/>
<feColorMatrix in="SourceAlpha" type="matrix" values="0 0 0 0 0 0 0 0 0 0 0 0 0 0 0 0 0 0 127 0" result="hardAlpha"/>
<feOffset dy="0.436459"/>
<feGaussianBlur stdDeviation="0.436459"/>
<feComposite in2="hardAlpha" operator="arithmetic" k2="-1" k3="1"/>
<feColorMatrix type="matrix" values="0 0 0 0 0.403922 0 0 0 0 0.309804 0 0 0 0 0.0156863 0 0 0 0.25 0"/>
<feBlend mode="normal" in2="shape" result="effect1_innerShadow_4_9988"/>
</filter>
<filter id="filter16_i_4_9988" x="118.5" y="119.097" width="5.32114" height="6.2469" filterUnits="userSpaceOnUse" color-interpolation-filters="sRGB">
<feFlood flood-opacity="0" result="BackgroundImageFix"/>
<feBlend mode="normal" in="SourceGraphic" in2="BackgroundImageFix" result="shape"/>
<feColorMatrix in="SourceAlpha" type="matrix" values="0 0 0 0 0 0 0 0 0 0 0 0 0 0 0 0 0 0 127 0" result="hardAlpha"/>
<feOffset dy="0.967909"/>
<feGaussianBlur stdDeviation="0.967909"/>
<feComposite in2="hardAlpha" operator="arithmetic" k2="-1" k3="1"/>
<feColorMatrix type="matrix" values="0 0 0 0 0.356863 0 0 0 0 0.262745 0 0 0 0 0.623529 0 0 0 0.5 0"/>
<feBlend mode="normal" in2="shape" result="effect1_innerShadow_4_9988"/>
</filter>
<filter id="filter17_i_4_9988" x="84.8506" y="92.3216" width="5.32114" height="6.2469" filterUnits="userSpaceOnUse" color-interpolation-filters="sRGB">
<feFlood flood-opacity="0" result="BackgroundImageFix"/>
<feBlend mode="normal" in="SourceGraphic" in2="BackgroundImageFix" result="shape"/>
<feColorMatrix in="SourceAlpha" type="matrix" values="0 0 0 0 0 0 0 0 0 0 0 0 0 0 0 0 0 0 127 0" result="hardAlpha"/>
<feOffset dy="0.967909"/>
<feGaussianBlur stdDeviation="0.967909"/>
<feComposite in2="hardAlpha" operator="arithmetic" k2="-1" k3="1"/>
<feColorMatrix type="matrix" values="0 0 0 0 0.356863 0 0 0 0 0.262745 0 0 0 0 0.623529 0 0 0 0.5 0"/>
<feBlend mode="normal" in2="shape" result="effect1_innerShadow_4_9988"/>
</filter>
<filter id="filter18_i_4_9988" x="228.1" y="232.497" width="5.32111" height="6.2469" filterUnits="userSpaceOnUse" color-interpolation-filters="sRGB">
<feFlood flood-opacity="0" result="BackgroundImageFix"/>
<feBlend mode="normal" in="SourceGraphic" in2="BackgroundImageFix" result="shape"/>
<feColorMatrix in="SourceAlpha" type="matrix" values="0 0 0 0 0 0 0 0 0 0 0 0 0 0 0 0 0 0 127 0" result="hardAlpha"/>
<feOffset dy="0.967909"/>
<feGaussianBlur stdDeviation="0.967909"/>
<feComposite in2="hardAlpha" operator="arithmetic" k2="-1" k3="1"/>
<feColorMatrix type="matrix" values="0 0 0 0 0.356863 0 0 0 0 0.262745 0 0 0 0 0.623529 0 0 0 0.5 0"/>
<feBlend mode="normal" in2="shape" result="effect1_innerShadow_4_9988"/>
</filter>
<filter id="filter19_i_4_9988" x="231.159" y="200.507" width="5.32111" height="6.2469" filterUnits="userSpaceOnUse" color-interpolation-filters="sRGB">
<feFlood flood-opacity="0" result="BackgroundImageFix"/>
<feBlend mode="normal" in="SourceGraphic" in2="BackgroundImageFix" result="shape"/>
<feColorMatrix in="SourceAlpha" type="matrix" values="0 0 0 0 0 0 0 0 0 0 0 0 0 0 0 0 0 0 127 0" result="hardAlpha"/>
<feOffset dy="0.967909"/>
<feGaussianBlur stdDeviation="0.967909"/>
<feComposite in2="hardAlpha" operator="arithmetic" k2="-1" k3="1"/>
<feColorMatrix type="matrix" values="0 0 0 0 0.356863 0 0 0 0 0.262745 0 0 0 0 0.623529 0 0 0 0.5 0"/>
<feBlend mode="normal" in2="shape" result="effect1_innerShadow_4_9988"/>
</filter>
<filter id="filter20_i_4_9988" x="123.046" y="239.941" width="5.32114" height="6.2469" filterUnits="userSpaceOnUse" color-interpolation-filters="sRGB">
<feFlood flood-opacity="0" result="BackgroundImageFix"/>
<feBlend mode="normal" in="SourceGraphic" in2="BackgroundImageFix" result="shape"/>
<feColorMatrix in="SourceAlpha" type="matrix" values="0 0 0 0 0 0 0 0 0 0 0 0 0 0 0 0 0 0 127 0" result="hardAlpha"/>
<feOffset dy="0.967909"/>
<feGaussianBlur stdDeviation="0.967909"/>
<feComposite in2="hardAlpha" operator="arithmetic" k2="-1" k3="1"/>
<feColorMatrix type="matrix" values="0 0 0 0 0.356863 0 0 0 0 0.262745 0 0 0 0 0.623529 0 0 0 0.5 0"/>
<feBlend mode="normal" in2="shape" result="effect1_innerShadow_4_9988"/>
</filter>
<filter id="filter21_i_4_9988" x="179.7" y="161.626" width="43.4342" height="41.9051" filterUnits="userSpaceOnUse" color-interpolation-filters="sRGB">
<feFlood flood-opacity="0" result="BackgroundImageFix"/>
<feBlend mode="normal" in="SourceGraphic" in2="BackgroundImageFix" result="shape"/>
<feColorMatrix in="SourceAlpha" type="matrix" values="0 0 0 0 0 0 0 0 0 0 0 0 0 0 0 0 0 0 127 0" result="hardAlpha"/>
<feOffset dy="0.967909"/>
<feGaussianBlur stdDeviation="0.967909"/>
<feComposite in2="hardAlpha" operator="arithmetic" k2="-1" k3="1"/>
<feColorMatrix type="matrix" values="0 0 0 0 0.356863 0 0 0 0 0.262745 0 0 0 0 0.623529 0 0 0 0.5 0"/>
<feBlend mode="normal" in2="shape" result="effect1_innerShadow_4_9988"/>
</filter>
<filter id="filter22_i_4_9988" x="187.282" y="167.678" width="28.9941" height="29.193" filterUnits="userSpaceOnUse" color-interpolation-filters="sRGB">
<feFlood flood-opacity="0" result="BackgroundImageFix"/>
<feBlend mode="normal" in="SourceGraphic" in2="BackgroundImageFix" result="shape"/>
<feColorMatrix in="SourceAlpha" type="matrix" values="0 0 0 0 0 0 0 0 0 0 0 0 0 0 0 0 0 0 127 0" result="hardAlpha"/>
<feOffset dy="0.967909"/>
<feGaussianBlur stdDeviation="0.967909"/>
<feComposite in2="hardAlpha" operator="arithmetic" k2="-1" k3="1"/>
<feColorMatrix type="matrix" values="0 0 0 0 0.356863 0 0 0 0 0.262745 0 0 0 0 0.623529 0 0 0 0.5 0"/>
<feBlend mode="normal" in2="shape" result="effect1_innerShadow_4_9988"/>
</filter>
<filter id="filter23_i_4_9988" x="190.225" y="174.947" width="16.1622" height="16.7014" filterUnits="userSpaceOnUse" color-interpolation-filters="sRGB">
<feFlood flood-opacity="0" result="BackgroundImageFix"/>
<feBlend mode="normal" in="SourceGraphic" in2="BackgroundImageFix" result="shape"/>
<feColorMatrix in="SourceAlpha" type="matrix" values="0 0 0 0 0 0 0 0 0 0 0 0 0 0 0 0 0 0 127 0" result="hardAlpha"/>
<feOffset dy="0.967909"/>
<feGaussianBlur stdDeviation="0.967909"/>
<feComposite in2="hardAlpha" operator="arithmetic" k2="-1" k3="1"/>
<feColorMatrix type="matrix" values="0 0 0 0 0.356863 0 0 0 0 0.262745 0 0 0 0 0.623529 0 0 0 0.5 0"/>
<feBlend mode="normal" in2="shape" result="effect1_innerShadow_4_9988"/>
</filter>
<filter id="filter24_i_4_9988" x="175.651" y="147.695" width="10.5529" height="11.2409" filterUnits="userSpaceOnUse" color-interpolation-filters="sRGB">
<feFlood flood-opacity="0" result="BackgroundImageFix"/>
<feBlend mode="normal" in="SourceGraphic" in2="BackgroundImageFix" result="shape"/>
<feColorMatrix in="SourceAlpha" type="matrix" values="0 0 0 0 0 0 0 0 0 0 0 0 0 0 0 0 0 0 127 0" result="hardAlpha"/>
<feOffset dy="0.967909"/>
<feGaussianBlur stdDeviation="0.967909"/>
<feComposite in2="hardAlpha" operator="arithmetic" k2="-1" k3="1"/>
<feColorMatrix type="matrix" values="0 0 0 0 0.356863 0 0 0 0 0.262745 0 0 0 0 0.623529 0 0 0 0.5 0"/>
<feBlend mode="normal" in2="shape" result="effect1_innerShadow_4_9988"/>
</filter>
<filter id="filter25_i_4_9988" x="119.775" y="59.4625" width="44.6181" height="45.9536" filterUnits="userSpaceOnUse" color-interpolation-filters="sRGB">
<feFlood flood-opacity="0" result="BackgroundImageFix"/>
<feBlend mode="normal" in="SourceGraphic" in2="BackgroundImageFix" result="shape"/>
<feColorMatrix in="SourceAlpha" type="matrix" values="0 0 0 0 0 0 0 0 0 0 0 0 0 0 0 0 0 0 127 0" result="hardAlpha"/>
<feOffset dy="0.967909"/>
<feGaussianBlur stdDeviation="0.967909"/>
<feComposite in2="hardAlpha" operator="arithmetic" k2="-1" k3="1"/>
<feColorMatrix type="matrix" values="0 0 0 0 0.356863 0 0 0 0 0.262745 0 0 0 0 0.623529 0 0 0 0.5 0"/>
<feBlend mode="normal" in2="shape" result="effect1_innerShadow_4_9988"/>
</filter>
<filter id="filter26_i_4_9988" x="126.553" y="65.853" width="30.6177" height="32.2859" filterUnits="userSpaceOnUse" color-interpolation-filters="sRGB">
<feFlood flood-opacity="0" result="BackgroundImageFix"/>
<feBlend mode="normal" in="SourceGraphic" in2="BackgroundImageFix" result="shape"/>
<feColorMatrix in="SourceAlpha" type="matrix" values="0 0 0 0 0 0 0 0 0 0 0 0 0 0 0 0 0 0 127 0" result="hardAlpha"/>
<feOffset dy="0.967909"/>
<feGaussianBlur stdDeviation="0.967909"/>
<feComposite in2="hardAlpha" operator="arithmetic" k2="-1" k3="1"/>
<feColorMatrix type="matrix" values="0 0 0 0 0.356863 0 0 0 0 0.262745 0 0 0 0 0.623529 0 0 0 0.5 0"/>
<feBlend mode="normal" in2="shape" result="effect1_innerShadow_4_9988"/>
</filter>
<filter id="filter27_i_4_9988" x="133.843" y="69.0772" width="17.0673" height="18.4255" filterUnits="userSpaceOnUse" color-interpolation-filters="sRGB">
<feFlood flood-opacity="0" result="BackgroundImageFix"/>
<feBlend mode="normal" in="SourceGraphic" in2="BackgroundImageFix" result="shape"/>
<feColorMatrix in="SourceAlpha" type="matrix" values="0 0 0 0 0 0 0 0 0 0 0 0 0 0 0 0 0 0 127 0" result="hardAlpha"/>
<feOffset dy="0.967909"/>
<feGaussianBlur stdDeviation="0.967909"/>
<feComposite in2="hardAlpha" operator="arithmetic" k2="-1" k3="1"/>
<feColorMatrix type="matrix" values="0 0 0 0 0.356863 0 0 0 0 0.262745 0 0 0 0 0.623529 0 0 0 0.5 0"/>
<feBlend mode="normal" in2="shape" result="effect1_innerShadow_4_9988"/>
</filter>
<filter id="filter28_i_4_9988" x="88.6415" y="110.223" width="25.1586" height="27.3161" filterUnits="userSpaceOnUse" color-interpolation-filters="sRGB">
<feFlood flood-opacity="0" result="BackgroundImageFix"/>
<feBlend mode="normal" in="SourceGraphic" in2="BackgroundImageFix" result="shape"/>
<feColorMatrix in="SourceAlpha" type="matrix" values="0 0 0 0 0 0 0 0 0 0 0 0 0 0 0 0 0 0 127 0" result="hardAlpha"/>
<feOffset dy="0.967909"/>
<feGaussianBlur stdDeviation="0.967909"/>
<feComposite in2="hardAlpha" operator="arithmetic" k2="-1" k3="1"/>
<feColorMatrix type="matrix" values="0 0 0 0 0.356863 0 0 0 0 0.262745 0 0 0 0 0.623529 0 0 0 0.5 0"/>
<feBlend mode="normal" in2="shape" result="effect1_innerShadow_4_9988"/>
</filter>
<filter id="filter29_i_4_9988" x="92.1357" y="115.34" width="17.6343" height="18.4219" filterUnits="userSpaceOnUse" color-interpolation-filters="sRGB">
<feFlood flood-opacity="0" result="BackgroundImageFix"/>
<feBlend mode="normal" in="SourceGraphic" in2="BackgroundImageFix" result="shape"/>
<feColorMatrix in="SourceAlpha" type="matrix" values="0 0 0 0 0 0 0 0 0 0 0 0 0 0 0 0 0 0 127 0" result="hardAlpha"/>
<feOffset dy="0.967909"/>
<feGaussianBlur stdDeviation="0.967909"/>
<feComposite in2="hardAlpha" operator="arithmetic" k2="-1" k3="1"/>
<feColorMatrix type="matrix" values="0 0 0 0 0.356863 0 0 0 0 0.262745 0 0 0 0 0.623529 0 0 0 0.5 0"/>
<feBlend mode="normal" in2="shape" result="effect1_innerShadow_4_9988"/>
</filter>
<filter id="filter30_i_4_9988" x="94.1916" y="117.876" width="9.82993" height="10.6973" filterUnits="userSpaceOnUse" color-interpolation-filters="sRGB">
<feFlood flood-opacity="0" result="BackgroundImageFix"/>
<feBlend mode="normal" in="SourceGraphic" in2="BackgroundImageFix" result="shape"/>
<feColorMatrix in="SourceAlpha" type="matrix" values="0 0 0 0 0 0 0 0 0 0 0 0 0 0 0 0 0 0 127 0" result="hardAlpha"/>
<feOffset dy="0.967909"/>
<feGaussianBlur stdDeviation="0.967909"/>
<feComposite in2="hardAlpha" operator="arithmetic" k2="-1" k3="1"/>
<feColorMatrix type="matrix" values="0 0 0 0 0.356863 0 0 0 0 0.262745 0 0 0 0 0.623529 0 0 0 0.5 0"/>
<feBlend mode="normal" in2="shape" result="effect1_innerShadow_4_9988"/>
</filter>
<filter id="filter31_i_4_9988" x="65.441" y="169.309" width="28.2027" height="29.3868" filterUnits="userSpaceOnUse" color-interpolation-filters="sRGB">
<feFlood flood-opacity="0" result="BackgroundImageFix"/>
<feBlend mode="normal" in="SourceGraphic" in2="BackgroundImageFix" result="shape"/>
<feColorMatrix in="SourceAlpha" type="matrix" values="0 0 0 0 0 0 0 0 0 0 0 0 0 0 0 0 0 0 127 0" result="hardAlpha"/>
<feOffset dy="0.967909"/>
<feGaussianBlur stdDeviation="0.967909"/>
<feComposite in2="hardAlpha" operator="arithmetic" k2="-1" k3="1"/>
<feColorMatrix type="matrix" values="0 0 0 0 0.356863 0 0 0 0 0.262745 0 0 0 0 0.623529 0 0 0 0.5 0"/>
<feBlend mode="normal" in2="shape" result="effect1_innerShadow_4_9988"/>
</filter>
<filter id="filter32_i_4_9988" x="70.0129" y="173.906" width="19.3502" height="20.7593" filterUnits="userSpaceOnUse" color-interpolation-filters="sRGB">
<feFlood flood-opacity="0" result="BackgroundImageFix"/>
<feBlend mode="normal" in="SourceGraphic" in2="BackgroundImageFix" result="shape"/>
<feColorMatrix in="SourceAlpha" type="matrix" values="0 0 0 0 0 0 0 0 0 0 0 0 0 0 0 0 0 0 127 0" result="hardAlpha"/>
<feOffset dy="0.967909"/>
<feGaussianBlur stdDeviation="0.967909"/>
<feComposite in2="hardAlpha" operator="arithmetic" k2="-1" k3="1"/>
<feColorMatrix type="matrix" values="0 0 0 0 0.356863 0 0 0 0 0.262745 0 0 0 0 0.623529 0 0 0 0.5 0"/>
<feBlend mode="normal" in2="shape" result="effect1_innerShadow_4_9988"/>
</filter>
<filter id="filter33_i_4_9988" x="177.601" y="72.6553" width="29.8005" height="28.7339" filterUnits="userSpaceOnUse" color-interpolation-filters="sRGB">
<feFlood flood-opacity="0" result="BackgroundImageFix"/>
<feBlend mode="normal" in="SourceGraphic" in2="BackgroundImageFix" result="shape"/>
<feColorMatrix in="SourceAlpha" type="matrix" values="0 0 0 0 0 0 0 0 0 0 0 0 0 0 0 0 0 0 127 0" result="hardAlpha"/>
<feOffset dy="0.967909"/>
<feGaussianBlur stdDeviation="0.967909"/>
<feComposite in2="hardAlpha" operator="arithmetic" k2="-1" k3="1"/>
<feColorMatrix type="matrix" values="0 0 0 0 0.356863 0 0 0 0 0.262745 0 0 0 0 0.623529 0 0 0 0.5 0"/>
<feBlend mode="normal" in2="shape" result="effect1_innerShadow_4_9988"/>
</filter>
<filter id="filter34_i_4_9988" x="183.588" y="76.9203" width="19.4189" height="20.233" filterUnits="userSpaceOnUse" color-interpolation-filters="sRGB">
<feFlood flood-opacity="0" result="BackgroundImageFix"/>
<feBlend mode="normal" in="SourceGraphic" in2="BackgroundImageFix" result="shape"/>
<feColorMatrix in="SourceAlpha" type="matrix" values="0 0 0 0 0 0 0 0 0 0 0 0 0 0 0 0 0 0 127 0" result="hardAlpha"/>
<feOffset dy="0.967909"/>
<feGaussianBlur stdDeviation="0.967909"/>
<feComposite in2="hardAlpha" operator="arithmetic" k2="-1" k3="1"/>
<feColorMatrix type="matrix" values="0 0 0 0 0.356863 0 0 0 0 0.262745 0 0 0 0 0.623529 0 0 0 0.5 0"/>
<feBlend mode="normal" in2="shape" result="effect1_innerShadow_4_9988"/>
</filter>
<filter id="filter35_i_4_9988" x="57.239" y="120.056" width="17.8105" height="19.6206" filterUnits="userSpaceOnUse" color-interpolation-filters="sRGB">
<feFlood flood-opacity="0" result="BackgroundImageFix"/>
<feBlend mode="normal" in="SourceGraphic" in2="BackgroundImageFix" result="shape"/>
<feColorMatrix in="SourceAlpha" type="matrix" values="0 0 0 0 0 0 0 0 0 0 0 0 0 0 0 0 0 0 127 0" result="hardAlpha"/>
<feOffset dy="0.967909"/>
<feGaussianBlur stdDeviation="0.967909"/>
<feComposite in2="hardAlpha" operator="arithmetic" k2="-1" k3="1"/>
<feColorMatrix type="matrix" values="0 0 0 0 0.356863 0 0 0 0 0.262745 0 0 0 0 0.623529 0 0 0 0.5 0"/>
<feBlend mode="normal" in2="shape" result="effect1_innerShadow_4_9988"/>
</filter>
<filter id="filter36_f_4_9988" x="-15.0699" y="43.6207" width="292.165" height="221.813" filterUnits="userSpaceOnUse" color-interpolation-filters="sRGB">
<feFlood flood-opacity="0" result="BackgroundImageFix"/>
<feBlend mode="normal" in="SourceGraphic" in2="BackgroundImageFix" result="shape"/>
<feGaussianBlur stdDeviation="5.28322" result="effect1_foregroundBlur_4_9988"/>
</filter>
<filter id="filter37_f_4_9988" x="58.2843" y="46.06" width="292.181" height="238.712" filterUnits="userSpaceOnUse" color-interpolation-filters="sRGB">
<feFlood flood-opacity="0" result="BackgroundImageFix"/>
<feBlend mode="normal" in="SourceGraphic" in2="BackgroundImageFix" result="shape"/>
<feGaussianBlur stdDeviation="6.60403" result="effect1_foregroundBlur_4_9988"/>
</filter>
<linearGradient id="paint0_linear_4_9988" x1="210.908" y1="111.056" x2="30.8819" y2="281.44" gradientUnits="userSpaceOnUse">
<stop stop-color="#E2D8FE"/>
<stop offset="1" stop-color="#836EBE"/>
</linearGradient>
<linearGradient id="paint1_linear_4_9988" x1="92.6558" y1="188.584" x2="165.48" y2="163.033" gradientUnits="userSpaceOnUse">
<stop stop-color="#705EA9"/>
<stop offset="1" stop-color="#C4B7EA"/>
</linearGradient>
<clipPath id="clip0_4_9988">
<rect x="74.7327" y="85.3005" width="158.497" height="158.497" rx="79.2484" transform="rotate(-4 74.7327 85.3005)" fill="white"/>
</clipPath>
</defs>
</svg>
