<svg width="336" height="336" viewBox="0 0 336 336" fill="none" xmlns="http://www.w3.org/2000/svg">
<circle cx="168" cy="168" r="168" fill="#F1D4BA"/>
<path fill-rule="evenodd" clip-rule="evenodd" d="M321.991 237.509C294.372 260.335 259.243 274 221 274C132.082 274 60.0001 200.127 60.0001 109C60.0001 77.6917 68.5086 48.42 83.2851 23.4811C34.0171 52.7653 1.00006 106.527 1.00006 168C1.00006 260.784 76.2162 336 169 336C236.994 336 295.553 295.607 321.991 237.509Z" fill="#A9B1A5"/>
<circle cx="136" cy="244" r="18" fill="#A9B1A5" stroke="#F1D4BA" stroke-width="4"/>
<circle cx="64.5001" cy="99.5001" r="9.5" fill="#A9B1A5" stroke="#F1D4BA" stroke-width="4"/>
<circle cx="177.5" cy="25.5001" r="9.5" fill="#A9B1A5" stroke="#F1D4BA" stroke-width="4"/>
<circle cx="198.5" cy="107.5" r="18.5" fill="#A9B1A5" stroke="#F1D4BA" stroke-width="4"/>
<circle cx="276.5" cy="165.5" r="37.5" fill="#A9B1A5" stroke="#F1D4BA" stroke-width="4"/>
<circle cx="180" cy="175" r="21" fill="#A9B1A5" stroke="#F1D4BA" stroke-width="4"/>
<circle cx="110" cy="69.0001" r="15" fill="#A9B1A5" stroke="#F1D4BA" stroke-width="4"/>
<circle cx="123" cy="130" r="8" fill="#A9B1A5" stroke="#F1D4BA" stroke-width="4"/>
</svg>
