<svg width="440" height="471" viewBox="0 0 440 471" fill="none" xmlns="http://www.w3.org/2000/svg">
<g filter="url(#filter0_d_4_9994)">
<g clip-path="url(#clip0_4_9994)">
<rect x="220.576" y="367.805" width="175.37" height="175.37" rx="87.6849" transform="rotate(-135.773 220.576 367.805)" fill="url(#paint0_linear_4_9994)"/>
<g filter="url(#filter1_f_4_9994)">
<path opacity="0.7" d="M299.843 413.758L287.983 405.492C268.445 391.876 250.894 375.611 235.833 357.163L229.054 348.859C218.491 335.921 206.181 324.513 192.478 314.963V314.963C178.774 305.413 166.465 294.005 155.902 281.066L142.344 264.458C131.781 251.52 119.471 240.112 105.767 230.562V230.562C92.0639 221.012 79.7541 209.604 69.1911 196.665L48.8539 171.754C42.7885 164.324 35.7201 157.773 27.8514 152.29V152.29C8.31313 138.674 -9.23803 122.408 -24.2985 103.96L-31.0776 95.6566C-41.6406 82.7179 -53.9504 71.3098 -67.6539 61.7599C-81.3573 52.21 -93.6671 40.802 -104.23 27.8633L-117.788 11.2557C-128.351 -1.68303 -140.661 -13.091 -154.364 -22.641C-168.068 -32.1909 -180.378 -43.5989 -190.941 -56.5376L-220.42 -92.6475" stroke="#5D2FE4" stroke-width="2.33826"/>
<path opacity="0.7" d="M307.998 405.38L296.138 397.115C276.6 383.498 259.048 367.233 243.988 348.785L237.209 340.481C226.646 327.543 214.336 316.135 200.633 306.585V306.585C186.929 297.035 174.619 285.627 164.056 272.688L150.498 256.08C139.935 243.142 127.625 231.734 113.922 222.184V222.184C100.219 212.634 87.9087 201.226 77.3458 188.287L57.0085 163.376C50.9432 155.946 43.8747 149.396 36.006 143.912V143.912C16.4678 130.296 -1.08337 114.03 -16.1439 95.5825L-22.923 87.2787C-33.4859 74.34 -45.7957 62.932 -59.4992 53.3821C-73.2027 43.8321 -85.5125 32.4241 -96.0754 19.4854L-109.634 2.87782C-120.197 -10.0609 -132.506 -21.4689 -146.21 -31.0188C-159.913 -40.5688 -172.223 -51.9768 -182.786 -64.9155L-212.265 -101.025" stroke="#120827" stroke-width="4.67653"/>
<path opacity="0.7" d="M354.888 357.207L343.027 348.942C323.489 335.326 305.938 319.061 290.877 300.613L284.098 292.309C273.535 279.37 261.225 267.962 247.522 258.412V258.412C233.819 248.862 221.509 237.454 210.946 224.516L197.388 207.908C186.825 194.969 174.515 183.561 160.811 174.011V174.011C147.108 164.461 134.798 153.053 124.235 140.115L103.898 115.203C97.8326 107.774 90.7641 101.223 82.8954 95.7394V95.7394C63.3572 82.1232 45.806 65.8578 30.7455 47.41L23.9664 39.1062C13.4035 26.1674 1.09367 14.7594 -12.6098 5.20951C-26.3133 -4.34041 -38.6231 -15.7484 -49.186 -28.6871L-62.7442 -45.2947C-73.3071 -58.2334 -85.6169 -69.6415 -99.3204 -79.1914C-113.024 -88.7413 -125.334 -100.149 -135.897 -113.088L-165.376 -149.198" stroke="#B098E4" stroke-width="9.35305"/>
<path opacity="0.7" d="M337.967 374.592L326.106 366.326C306.568 352.71 289.017 336.445 273.956 317.997L267.177 309.693C256.614 296.754 244.305 285.346 230.601 275.796V275.796C216.898 266.246 204.588 254.838 194.025 241.9L180.467 225.292C169.904 212.353 157.594 200.945 143.89 191.395V191.395C130.187 181.845 117.877 170.437 107.314 157.499L86.977 132.587C80.9116 125.158 73.8432 118.607 65.9745 113.123V113.123C46.4362 99.5072 28.8851 83.2419 13.8246 64.794L7.04548 56.4902C-3.51746 43.5515 -15.8273 32.1435 -29.5308 22.5935C-43.2342 13.0436 -55.544 1.63563 -66.107 -11.3031L-79.6651 -27.9107C-90.2281 -40.8494 -102.538 -52.2574 -116.241 -61.8074C-129.945 -71.3573 -142.255 -82.7653 -152.818 -95.704L-182.297 -131.814" stroke="#331E6F" stroke-width="12.2759"/>
<path opacity="0.7" d="M389.545 321.602L377.685 313.336C358.146 299.72 340.595 283.455 325.535 265.007L318.756 256.703C308.193 243.764 295.883 232.356 282.179 222.806V222.806C268.476 213.256 256.166 201.849 245.603 188.91L232.045 172.302C221.482 159.363 209.172 147.955 195.469 138.406V138.406C181.765 128.856 169.455 117.448 158.893 104.509L138.555 79.5974C132.49 72.1679 125.421 65.6173 117.553 60.1336V60.1336C98.0145 46.5174 80.4634 30.2521 65.4029 11.8042L58.6238 3.50039C48.0608 -9.43833 35.751 -20.8463 22.0476 -30.3963C8.34409 -39.9462 -3.96572 -51.3542 -14.5287 -64.2929L-28.0868 -80.9005C-38.6498 -93.8392 -50.9596 -105.247 -64.663 -114.797C-78.3665 -124.347 -90.6763 -135.755 -101.239 -148.694L-130.719 -184.804" stroke="#6C44DD" stroke-width="2.33826"/>
<path opacity="0.7" d="M399.738 311.129L387.878 302.864C368.34 289.248 350.789 272.982 335.728 254.535L328.949 246.231C318.386 233.292 306.076 221.884 292.373 212.334V212.334C278.669 202.784 266.359 191.376 255.797 178.438L242.238 161.83C231.675 148.891 219.366 137.483 205.662 127.933V127.933C191.959 118.383 179.649 106.975 169.086 94.0366L148.749 69.1252C142.683 61.6956 135.615 55.145 127.746 49.6613V49.6613C108.208 36.0451 90.6567 19.7798 75.5962 1.33192L68.8171 -6.9719C58.2542 -19.9106 45.9444 -31.3186 32.2409 -40.8686C18.5375 -50.4185 6.22764 -61.8265 -4.3353 -74.7652L-17.8935 -91.3728C-28.4564 -104.312 -40.7662 -115.72 -54.4697 -125.269C-68.1731 -134.819 -80.483 -146.227 -91.0459 -159.166L-120.525 -195.276" stroke="#180F37" stroke-width="4.67653"/>
<path opacity="0.7" d="M381.39 329.98L369.53 321.714C349.992 308.098 332.441 291.833 317.38 273.385L310.601 265.081C300.038 252.142 287.728 240.734 274.025 231.184V231.184C260.321 221.634 248.011 210.226 237.448 197.288L223.89 180.68C213.327 167.741 201.018 156.333 187.314 146.783V146.783C173.611 137.233 161.301 125.825 150.738 112.887L130.401 87.9753C124.335 80.5457 117.267 73.9951 109.398 68.5114V68.5114C89.8599 54.8952 72.3087 38.6299 57.2482 20.182L50.4691 11.8782C39.9062 -1.06052 27.5964 -12.4685 13.8929 -22.0185C0.189429 -31.5684 -12.1204 -42.9764 -22.6833 -55.9151L-36.2415 -72.5227C-46.8044 -85.4614 -59.1142 -96.8694 -72.8177 -106.419C-86.5212 -115.969 -98.831 -127.377 -109.394 -140.316L-138.873 -176.426" stroke="#401F9E" stroke-width="4.67653"/>
</g>
<g filter="url(#filter2_f_4_9994)">
<path d="M142.684 337.122C248.825 332.078 305.556 209.838 240.888 125.521L220.154 98.4865L411.434 330.285L142.684 337.122Z" fill="url(#paint1_linear_4_9994)" fill-opacity="0.4"/>
</g>
<g opacity="0.2" filter="url(#filter3_f_4_9994)">
<path d="M292.216 148.506C185.966 146.982 121.788 265.481 181.122 353.634L200.146 381.898L23.557 138.722L292.216 148.506Z" fill="#DDCDFF"/>
</g>
</g>
</g>
<g opacity="0.8" filter="url(#filter4_f_4_9994)">
<path d="M149.311 188.008C112.43 149.568 92.3347 125.713 95.2046 122.764C99.3632 118.492 157.189 168.033 224.363 233.417C291.536 298.801 342.62 355.269 338.461 359.542C335.592 362.49 314.991 346.733 275.569 310.903" stroke="url(#paint2_linear_4_9994)" stroke-width="4.67653"/>
</g>
<g opacity="0.8" filter="url(#filter5_f_4_9994)">
<path d="M152.413 185.453C118.562 150.965 106.027 137.327 107.764 135.543C110.28 132.958 161.734 178.961 222.69 238.293C283.646 297.626 331.021 347.819 328.505 350.404C326.768 352.188 313.744 340.948 278.355 308.04" stroke="url(#paint3_linear_4_9994)" stroke-width="3.50739"/>
</g>
<defs>
<filter id="filter0_d_4_9994" x="71.5258" y="96.4346" width="294.753" height="294.753" filterUnits="userSpaceOnUse" color-interpolation-filters="sRGB">
<feFlood flood-opacity="0" result="BackgroundImageFix"/>
<feColorMatrix in="SourceAlpha" type="matrix" values="0 0 0 0 0 0 0 0 0 0 0 0 0 0 0 0 0 0 127 0" result="hardAlpha"/>
<feOffset/>
<feGaussianBlur stdDeviation="11.6913"/>
<feComposite in2="hardAlpha" operator="out"/>
<feColorMatrix type="matrix" values="0 0 0 0 0.124624 0 0 0 0 0.0614583 0 0 0 0 0.245833 0 0 0 1 0"/>
<feBlend mode="normal" in2="BackgroundImageFix" result="effect1_dropShadow_4_9994"/>
<feBlend mode="normal" in="SourceGraphic" in2="effect1_dropShadow_4_9994" result="shape"/>
</filter>
<filter id="filter1_f_4_9994" x="-226.002" y="-201.431" width="631.754" height="620.825" filterUnits="userSpaceOnUse" color-interpolation-filters="sRGB">
<feFlood flood-opacity="0" result="BackgroundImageFix"/>
<feBlend mode="normal" in="SourceGraphic" in2="BackgroundImageFix" result="shape"/>
<feGaussianBlur stdDeviation="2.33826" result="effect1_foregroundBlur_4_9994"/>
</filter>
<filter id="filter2_f_4_9994" x="130.992" y="86.7951" width="292.133" height="262.019" filterUnits="userSpaceOnUse" color-interpolation-filters="sRGB">
<feFlood flood-opacity="0" result="BackgroundImageFix"/>
<feBlend mode="normal" in="SourceGraphic" in2="BackgroundImageFix" result="shape"/>
<feGaussianBlur stdDeviation="5.84566" result="effect1_foregroundBlur_4_9994"/>
</filter>
<filter id="filter3_f_4_9994" x="8.94286" y="124.108" width="297.887" height="272.404" filterUnits="userSpaceOnUse" color-interpolation-filters="sRGB">
<feFlood flood-opacity="0" result="BackgroundImageFix"/>
<feBlend mode="normal" in="SourceGraphic" in2="BackgroundImageFix" result="shape"/>
<feGaussianBlur stdDeviation="7.30707" result="effect1_foregroundBlur_4_9994"/>
</filter>
<filter id="filter4_f_4_9994" x="89.6729" y="117.248" width="254.285" height="247.901" filterUnits="userSpaceOnUse" color-interpolation-filters="sRGB">
<feFlood flood-opacity="0" result="BackgroundImageFix"/>
<feBlend mode="normal" in="SourceGraphic" in2="BackgroundImageFix" result="shape"/>
<feGaussianBlur stdDeviation="1.46141" result="effect1_foregroundBlur_4_9994"/>
</filter>
<filter id="filter5_f_4_9994" x="102.93" y="130.763" width="230.346" height="224.498" filterUnits="userSpaceOnUse" color-interpolation-filters="sRGB">
<feFlood flood-opacity="0" result="BackgroundImageFix"/>
<feBlend mode="normal" in="SourceGraphic" in2="BackgroundImageFix" result="shape"/>
<feGaussianBlur stdDeviation="1.46141" result="effect1_foregroundBlur_4_9994"/>
</filter>
<linearGradient id="paint0_linear_4_9994" x1="382.208" y1="413.255" x2="220.576" y2="471.711" gradientUnits="userSpaceOnUse">
<stop stop-color="#B68AFF"/>
<stop offset="1" stop-color="#3E16B6"/>
</linearGradient>
<linearGradient id="paint1_linear_4_9994" x1="320.304" y1="291.119" x2="246.022" y2="245.167" gradientUnits="userSpaceOnUse">
<stop stop-color="#281E3C"/>
<stop offset="1" stop-color="#6B47B4"/>
</linearGradient>
<linearGradient id="paint2_linear_4_9994" x1="210.546" y1="247.612" x2="224.363" y2="233.417" gradientUnits="userSpaceOnUse">
<stop stop-color="#311D64"/>
<stop offset="1" stop-color="#DCCBFF"/>
</linearGradient>
<linearGradient id="paint3_linear_4_9994" x1="214.911" y1="246.286" x2="222.69" y2="238.293" gradientUnits="userSpaceOnUse">
<stop stop-color="#9747FF"/>
<stop offset="1" stop-color="#A77FF2"/>
</linearGradient>
<clipPath id="clip0_4_9994">
<rect x="220.576" y="367.805" width="175.37" height="175.37" rx="87.6849" transform="rotate(-135.773 220.576 367.805)" fill="white"/>
</clipPath>
</defs>
</svg>
