<svg width="359" height="312" viewBox="0 0 359 312" fill="none" xmlns="http://www.w3.org/2000/svg">
<g filter="url(#filter0_d_4_9993)">
<g clip-path="url(#clip0_4_9993)">
<rect x="80.1121" y="102.675" width="155.26" height="155.26" rx="77.63" transform="rotate(-16 80.1121 102.675)" fill="url(#paint0_linear_4_9993)"/>
<g filter="url(#filter1_f_4_9993)">
<path opacity="0.7" d="M9.95073 143.386L21.5165 137.906C40.5696 128.878 60.7849 122.541 81.5825 119.078L90.9439 117.519C105.531 115.09 119.709 110.645 133.072 104.313V104.313C146.435 97.981 160.614 93.5367 175.2 91.1077L193.923 87.9899C208.51 85.5609 222.688 81.1166 236.052 74.7844V74.7844C249.415 68.4522 263.593 64.0078 278.18 61.5788L306.264 56.9022C314.64 55.5074 322.781 52.9554 330.455 49.3194V49.3194C349.508 40.291 369.723 33.9543 390.521 30.4911L399.882 28.9322C414.469 26.5032 428.647 22.0588 442.01 15.7266C455.373 9.39446 469.552 4.9501 484.139 2.5211L502.861 -0.596666C517.448 -3.02567 531.626 -7.47003 544.99 -13.8022C558.353 -20.1344 572.531 -24.5788 587.118 -27.0078L627.827 -33.7867" stroke="#4F301A" stroke-width="2.07013"/>
<path opacity="0.7" d="M12.8038 153.336L24.3696 147.856C43.4226 138.827 63.638 132.491 84.4355 129.027L93.7969 127.468C108.384 125.039 122.562 120.595 135.925 114.263V114.263C149.288 107.931 163.467 103.486 178.053 101.057L196.776 97.9396C211.363 95.5106 225.541 91.0662 238.905 84.734V84.734C252.268 78.4019 266.446 73.9575 281.033 71.5285L309.117 66.8518C317.493 65.4571 325.634 62.9051 333.308 59.2691V59.2691C352.361 50.2407 372.576 43.904 393.374 40.4408L402.735 38.8819C417.322 36.4529 431.5 32.0085 444.863 25.6763C458.226 19.3441 472.405 14.8998 486.992 12.4708L505.714 9.35301C520.301 6.92401 534.479 2.47964 547.843 -3.85254C561.206 -10.1847 575.384 -14.6291 589.971 -17.0581L630.68 -23.837" stroke="#7D4A34" stroke-width="4.14027"/>
<path opacity="0.7" d="M23.5026 190.647L35.0684 185.167C54.1215 176.139 74.3368 169.802 95.1343 166.339L104.496 164.78C119.082 162.351 133.261 157.906 146.624 151.574V151.574C159.987 145.242 174.166 140.798 188.752 138.369L207.475 135.251C222.062 132.822 236.24 128.378 249.603 122.045V122.045C262.967 115.713 277.145 111.269 291.732 108.84L319.816 104.163C328.192 102.768 336.333 100.216 344.007 96.5804V96.5804C363.06 87.5521 383.275 81.2154 404.072 77.7521L413.434 76.1932C428.021 73.7642 442.199 69.3199 455.562 62.9877C468.925 56.6555 483.104 52.2111 497.69 49.7821L516.413 46.6644C531 44.2354 545.178 39.791 558.542 33.4588C571.905 27.1266 586.083 22.6823 600.67 20.2533L641.379 13.4743" stroke="#EFD9B8" stroke-width="4.14027"/>
<path opacity="0.7" d="M20.6496 180.698L32.2154 175.217C51.2685 166.189 71.4838 159.852 92.2813 156.389L101.643 154.83C116.229 152.401 130.408 147.957 143.771 141.625V141.625C157.134 135.292 171.313 130.848 185.899 128.419L204.622 125.301C219.209 122.872 233.387 118.428 246.75 112.096V112.096C260.114 105.764 274.292 101.319 288.879 98.8902L316.963 94.2135C325.339 92.8188 333.48 90.2668 341.154 86.6308V86.6308C360.207 77.6024 380.422 71.2657 401.219 67.8025L410.581 66.2436C425.168 63.8146 439.346 59.3702 452.709 53.038C466.072 46.7058 480.251 42.2615 494.837 39.8325L513.56 36.7147C528.147 34.2857 542.325 29.8413 555.688 23.5092C569.052 17.177 583.23 12.7326 597.817 10.3036L638.526 3.52466" stroke="#824B3A" stroke-width="6.2104"/>
<path opacity="0.7" d="M41.334 252.833L52.8998 247.353C71.9529 238.324 92.1682 231.988 112.966 228.524L122.327 226.965C136.914 224.536 151.092 220.092 164.455 213.76V213.76C177.819 207.428 191.997 202.983 206.584 200.554L225.307 197.437C239.893 195.008 254.072 190.563 267.435 184.231V184.231C280.798 177.899 294.976 173.455 309.563 171.026L337.647 166.349C346.023 164.954 354.165 162.402 361.838 158.766V158.766C380.891 149.738 401.106 143.401 421.904 139.938L431.265 138.379C445.852 135.95 460.03 131.506 473.394 125.173C486.757 118.841 500.935 114.397 515.522 111.968L534.245 108.85C548.831 106.421 563.01 101.977 576.373 95.6445C589.736 89.3123 603.915 84.8679 618.501 82.4389L659.21 75.66" stroke="#824B3A" stroke-width="2.07013"/>
<path opacity="0.7" d="M44.9003 265.27L56.4661 259.79C75.5192 250.761 95.7345 244.425 116.532 240.961L125.893 239.403C140.48 236.974 154.659 232.529 168.022 226.197V226.197C181.385 219.865 195.563 215.42 210.15 212.991L228.873 209.874C243.46 207.445 257.638 203 271.001 196.668V196.668C284.364 190.336 298.543 185.892 313.129 183.463L341.214 178.786C349.59 177.391 357.731 174.839 365.404 171.203V171.203C384.457 162.175 404.673 155.838 425.47 152.375L434.832 150.816C449.418 148.387 463.597 143.943 476.96 137.61C490.323 131.278 504.501 126.834 519.088 124.405L537.811 121.287C552.398 118.858 566.576 114.414 579.939 108.082C593.302 101.749 607.481 97.305 622.067 94.876L662.777 88.0971" stroke="#9E7B47" stroke-width="4.14027"/>
<path opacity="0.7" d="M38.481 242.883L50.0468 237.403C69.0999 228.375 89.3152 222.038 110.113 218.575L119.474 217.016C134.061 214.587 148.239 210.142 161.602 203.81V203.81C174.966 197.478 189.144 193.034 203.731 190.605L222.454 187.487C237.04 185.058 251.219 180.614 264.582 174.281V174.281C277.945 167.949 292.123 163.505 306.71 161.076L334.794 156.399C343.17 155.004 351.312 152.452 358.985 148.816V148.816C378.038 139.788 398.253 133.451 419.051 129.988L428.412 128.429C442.999 126 457.177 121.556 470.541 115.224C483.904 108.891 498.082 104.447 512.669 102.018L531.392 98.9003C545.978 96.4713 560.157 92.0269 573.52 85.6948C586.883 79.3626 601.061 74.9182 615.648 72.4892L656.357 65.7103" stroke="#F0A6A6" stroke-width="4.14027"/>
</g>
<g filter="url(#filter2_f_4_9993)">
<path d="M137.934 56.306V56.306C95.1481 140.089 164.144 237.425 257.369 224.799L287.259 220.75L25.0385 265.836L137.934 56.306Z" fill="url(#paint1_linear_4_9993)" fill-opacity="0.4"/>
</g>
<g opacity="0.2" filter="url(#filter3_f_4_9993)">
<path d="M217.14 254.137V254.137C265.022 173.158 202.174 71.7442 108.346 78.5857L78.2632 80.7792L342.769 51.984L217.14 254.137Z" fill="#C5AFAF"/>
</g>
</g>
</g>
<g filter="url(#filter4_f_4_9993)">
<path d="M249.497 127.31C300.2 115.669 335.652 111.193 337.386 117.241C339.899 126.003 270.662 153.545 182.741 178.756C94.8198 203.967 21.5087 217.3 18.9959 208.537C17.2618 202.49 49.699 187.499 98.8663 170.503" stroke="url(#paint2_linear_4_9993)" stroke-width="6.72793"/>
</g>
<g opacity="0.8" filter="url(#filter5_f_4_9993)">
<path d="M251.524 133.429C297.637 121.884 325.013 116.868 326.017 120.37C327.472 125.444 263.467 148.249 183.058 171.306C102.649 194.362 36.2857 208.94 34.8307 203.866C33.8266 200.365 55.1659 191.411 100.39 176.766" stroke="url(#paint3_linear_4_9993)" stroke-width="2.58767"/>
</g>
<g opacity="0.8" filter="url(#filter6_f_4_9993)">
<path d="M252.121 136.937C293.832 125.992 309.947 122.319 310.554 124.438C311.435 127.508 252.998 146.958 180.031 167.881C107.065 188.803 47.2009 203.276 46.3206 200.206C45.7131 198.087 60.1922 192.987 101.365 180.166" stroke="url(#paint4_linear_4_9993)" stroke-width="3.1052"/>
</g>
<defs>
<filter id="filter0_d_4_9993" x="59.4108" y="39.1778" width="233.444" height="233.444" filterUnits="userSpaceOnUse" color-interpolation-filters="sRGB">
<feFlood flood-opacity="0" result="BackgroundImageFix"/>
<feColorMatrix in="SourceAlpha" type="matrix" values="0 0 0 0 0 0 0 0 0 0 0 0 0 0 0 0 0 0 127 0" result="hardAlpha"/>
<feOffset/>
<feGaussianBlur stdDeviation="10.3507"/>
<feComposite in2="hardAlpha" operator="out"/>
<feColorMatrix type="matrix" values="0 0 0 0 0.201042 0 0 0 0 0.304167 0 0 0 0 0.0544965 0 0 0 0.6 0"/>
<feBlend mode="normal" in2="BackgroundImageFix" result="effect1_dropShadow_4_9993"/>
<feBlend mode="normal" in="SourceGraphic" in2="effect1_dropShadow_4_9993" result="shape"/>
</filter>
<filter id="filter1_f_4_9993" x="3.29711" y="-41.0181" width="666.03" height="314.369" filterUnits="userSpaceOnUse" color-interpolation-filters="sRGB">
<feFlood flood-opacity="0" result="BackgroundImageFix"/>
<feBlend mode="normal" in="SourceGraphic" in2="BackgroundImageFix" result="shape"/>
<feGaussianBlur stdDeviation="3.1052" result="effect1_foregroundBlur_4_9993"/>
</filter>
<filter id="filter2_f_4_9993" x="14.6878" y="45.9553" width="282.922" height="230.232" filterUnits="userSpaceOnUse" color-interpolation-filters="sRGB">
<feFlood flood-opacity="0" result="BackgroundImageFix"/>
<feBlend mode="normal" in="SourceGraphic" in2="BackgroundImageFix" result="shape"/>
<feGaussianBlur stdDeviation="5.17533" result="effect1_foregroundBlur_4_9993"/>
</filter>
<filter id="filter3_f_4_9993" x="65.3249" y="39.0457" width="290.382" height="228.03" filterUnits="userSpaceOnUse" color-interpolation-filters="sRGB">
<feFlood flood-opacity="0" result="BackgroundImageFix"/>
<feBlend mode="normal" in="SourceGraphic" in2="BackgroundImageFix" result="shape"/>
<feGaussianBlur stdDeviation="6.46917" result="effect1_foregroundBlur_4_9993"/>
</filter>
<filter id="filter4_f_4_9993" x="14.2679" y="109.891" width="327.844" height="105.997" filterUnits="userSpaceOnUse" color-interpolation-filters="sRGB">
<feFlood flood-opacity="0" result="BackgroundImageFix"/>
<feBlend mode="normal" in="SourceGraphic" in2="BackgroundImageFix" result="shape"/>
<feGaussianBlur stdDeviation="0.646917" result="effect1_foregroundBlur_4_9993"/>
</filter>
<filter id="filter5_f_4_9993" x="30.9132" y="115.391" width="299.011" height="93.365" filterUnits="userSpaceOnUse" color-interpolation-filters="sRGB">
<feFlood flood-opacity="0" result="BackgroundImageFix"/>
<feBlend mode="normal" in="SourceGraphic" in2="BackgroundImageFix" result="shape"/>
<feGaussianBlur stdDeviation="1.29383" result="effect1_foregroundBlur_4_9993"/>
</filter>
<filter id="filter6_f_4_9993" x="42.1582" y="119.725" width="272.547" height="85.0315" filterUnits="userSpaceOnUse" color-interpolation-filters="sRGB">
<feFlood flood-opacity="0" result="BackgroundImageFix"/>
<feBlend mode="normal" in="SourceGraphic" in2="BackgroundImageFix" result="shape"/>
<feGaussianBlur stdDeviation="1.29383" result="effect1_foregroundBlur_4_9993"/>
</filter>
<linearGradient id="paint0_linear_4_9993" x1="223.21" y1="142.913" x2="80.112" y2="194.666" gradientUnits="userSpaceOnUse">
<stop stop-color="#CFAB75"/>
<stop offset="1" stop-color="#7B3434"/>
</linearGradient>
<linearGradient id="paint1_linear_4_9993" x1="95.1993" y1="213.025" x2="163.169" y2="176.144" gradientUnits="userSpaceOnUse">
<stop stop-color="#8B4301"/>
<stop offset="1" stop-color="#FFDA7B"/>
</linearGradient>
<linearGradient id="paint2_linear_4_9993" x1="174.182" y1="148.907" x2="182.741" y2="178.756" gradientUnits="userSpaceOnUse">
<stop stop-color="#694632"/>
<stop offset="1" stop-color="#AB9751"/>
</linearGradient>
<linearGradient id="paint3_linear_4_9993" x1="178.224" y1="154.447" x2="183.058" y2="171.306" gradientUnits="userSpaceOnUse">
<stop stop-color="#7A5837"/>
<stop offset="1" stop-color="#FFEDE3"/>
</linearGradient>
<linearGradient id="paint4_linear_4_9993" x1="177.31" y1="158.389" x2="180.031" y2="167.881" gradientUnits="userSpaceOnUse">
<stop stop-color="#36231D"/>
<stop offset="1" stop-color="#CF8618"/>
</linearGradient>
<clipPath id="clip0_4_9993">
<rect x="80.1121" y="102.675" width="155.26" height="155.26" rx="77.63" transform="rotate(-16 80.1121 102.675)" fill="white"/>
</clipPath>
</defs>
</svg>
