<svg width="365" height="365" viewBox="0 0 365 365" fill="none" xmlns="http://www.w3.org/2000/svg">
<g filter="url(#filter0_d_4_9992)">
<g clip-path="url(#clip0_4_9992)">
<rect x="91.5588" y="91.3955" width="181.902" height="181.902" rx="90.9511" fill="url(#paint0_linear_4_9992)"/>
<g filter="url(#filter1_f_4_9992)">
<path opacity="0.8" d="M14.9657 206.297L76.5821 186.625C94.4432 180.922 113.642 180.958 131.482 186.725L164.752 197.482C182.488 203.216 201.569 203.285 219.345 197.68L255.057 186.419C272.727 180.847 291.688 180.881 309.338 186.516L343.829 197.528C361.69 203.231 380.889 203.195 398.729 197.428L432.771 186.421C450.718 180.619 470.037 180.619 487.984 186.421L521.854 197.372C539.801 203.174 559.12 203.174 577.066 197.372L610.936 186.421C628.883 180.619 648.202 180.619 666.149 186.421L727.625 206.297" stroke="#00D5F5" stroke-width="9.70145"/>
<path opacity="0.5" d="M-19.9719 235.941L41.6445 216.269C59.5055 210.566 78.7041 210.602 96.5442 216.369L129.814 227.126C147.55 232.86 166.631 232.929 184.408 227.324L220.12 216.063C237.789 210.491 256.75 210.525 274.4 216.16L308.892 227.172C326.753 232.874 345.951 232.839 363.791 227.071L397.834 216.065C415.781 210.263 435.1 210.263 453.046 216.065L486.916 227.016C504.863 232.818 524.182 232.818 542.129 227.016L575.999 216.065C593.945 210.263 613.264 210.263 631.211 216.065L692.687 235.941" stroke="#00D5F5" stroke-width="7.27609"/>
<path d="M2.98157 217.211L64.598 197.539C82.459 191.837 101.658 191.872 119.498 197.64L152.768 208.396C170.503 214.13 189.584 214.199 207.361 208.594L243.073 197.333C260.743 191.761 279.704 191.795 297.354 197.43L331.845 208.442C349.706 214.145 368.905 214.11 386.745 208.342L420.787 197.335C438.734 191.533 458.053 191.533 476 197.335L509.87 208.286C527.817 214.088 547.135 214.088 565.082 208.286L598.952 197.335C616.899 191.533 636.218 191.533 654.165 197.335L715.641 217.211" stroke="#00D5F5" stroke-width="4.85073"/>
<path d="M-8.20367 223.275L53.4127 203.602C71.2738 197.9 90.4724 197.935 108.312 203.703L141.583 214.46C159.318 220.194 178.399 220.263 196.176 214.657L231.888 203.396C249.558 197.825 268.519 197.859 286.168 203.494L320.66 214.506C338.521 220.208 357.72 220.173 375.56 214.405L409.602 203.399C427.549 197.596 446.868 197.596 464.815 203.399L498.684 214.349C516.631 220.152 535.95 220.152 553.897 214.349L587.767 203.399C605.714 197.596 625.033 197.596 642.979 203.399L704.456 223.275" stroke="#00D5F5" stroke-width="2.42536"/>
<path d="M-4.80151 226.142L56.8149 206.47C74.6759 200.768 93.8745 200.803 111.715 206.571L144.985 217.327C162.72 223.061 181.801 223.13 199.578 217.525L235.29 206.264C252.96 200.692 271.921 200.726 289.57 206.361L324.062 217.373C341.923 223.076 361.122 223.041 378.962 217.273L413.004 206.266C430.951 200.464 450.27 200.464 468.217 206.266L502.087 217.217C520.033 223.019 539.352 223.019 557.299 217.217L591.169 206.266C609.116 200.464 628.435 200.464 646.382 206.266L707.858 226.142" stroke="#00D5F5" stroke-width="1.21268"/>
<path d="M-12.7005 229.586L48.9159 209.914C66.777 204.211 85.9755 204.246 103.816 210.014L137.086 220.771C154.821 226.505 173.902 226.574 191.679 220.969L227.391 209.708C245.061 204.136 264.022 204.17 281.671 209.805L316.163 220.817C334.024 226.519 353.223 226.484 371.063 220.716L405.105 209.71C423.052 203.908 442.371 203.908 460.318 209.71L494.188 220.661C512.134 226.463 531.453 226.463 549.4 220.661L583.27 209.71C601.217 203.908 620.536 203.908 638.483 209.71L699.959 229.586" stroke="#00D5F5" stroke-width="1.21268"/>
<path d="M3.18793 259.246L68.4256 239.063C85.8081 233.685 104.415 233.718 121.778 239.158L159.399 250.945C176.66 256.353 195.153 256.418 212.452 251.132L252.586 238.868C269.781 233.614 288.157 233.646 305.333 238.96L344.212 250.989C361.594 256.366 380.201 256.333 397.564 250.893L436.002 238.851C453.47 233.378 472.193 233.378 489.66 238.851L527.931 250.841C545.398 256.313 564.122 256.313 581.589 250.841L619.859 238.851C637.327 233.378 656.05 233.378 673.518 238.851L738.617 259.246" stroke="#00D5F5" stroke-width="0.606341"/>
<path d="M-9.73602 263.685L55.5017 243.501C72.8842 238.124 91.4908 238.157 108.854 243.597L146.475 255.383C163.736 260.791 182.229 260.856 199.528 255.57L239.662 243.307C256.857 238.053 275.233 238.085 292.409 243.399L331.288 255.427C348.67 260.805 367.277 260.772 384.64 255.332L423.078 243.289C440.546 237.817 459.269 237.817 476.736 243.289L515.007 255.279C532.474 260.752 551.198 260.752 568.665 255.279L606.935 243.289C624.403 237.817 643.126 237.817 660.594 243.289L725.693 263.685" stroke="#00D5F5" stroke-width="0.606341"/>
<path d="M4.00482 267.906L69.2425 247.722C86.625 242.344 105.232 242.378 122.595 247.817L160.216 259.604C177.477 265.012 195.969 265.077 213.268 259.791L253.403 247.528C270.598 242.274 288.974 242.306 306.15 247.62L345.029 259.648C362.411 265.026 381.018 264.993 398.381 259.553L436.819 247.51C454.286 242.037 473.01 242.037 490.477 247.51L528.748 259.5C546.215 264.973 564.938 264.973 582.406 259.5L620.676 247.51C638.144 242.037 656.867 242.037 674.335 247.51L739.434 267.906" stroke="#00D5F5" stroke-width="2.42536"/>
<path opacity="0.8" d="M-2.05872 270.937L63.179 250.754C80.5615 245.376 99.1681 245.409 116.531 250.849L154.152 262.636C171.413 268.044 189.906 268.109 207.205 262.823L247.34 250.559C264.534 245.305 282.911 245.337 300.087 250.651L338.965 262.68C356.347 268.057 374.954 268.024 392.317 262.584L430.755 250.542C448.223 245.069 466.946 245.069 484.414 250.542L522.684 262.532C540.152 268.004 558.875 268.004 576.342 262.532L614.613 250.542C632.08 245.069 650.804 245.069 668.271 250.542L733.371 270.937" stroke="#00D5F5" stroke-width="4.85073"/>
<path d="M-2.6817 280.051L62.556 259.867C79.9385 254.49 98.5451 254.523 115.908 259.963L153.529 271.749C170.79 277.157 189.283 277.222 206.582 271.936L246.717 259.673C263.911 254.419 282.288 254.451 299.464 259.765L338.342 271.793C355.724 277.171 374.331 277.138 391.694 271.698L430.132 259.655C447.6 254.183 466.323 254.183 483.791 259.655L522.061 271.645C539.529 277.118 558.252 277.118 575.719 271.645L613.99 259.655C631.457 254.183 650.181 254.183 667.648 259.655L732.748 280.051" stroke="#00D5F5" stroke-width="1.21268"/>
<path d="M4.57947 199.324L66.1959 179.652C84.0569 173.95 103.256 173.985 121.096 179.753L154.366 190.509C172.101 196.243 191.182 196.312 208.959 190.707L244.671 179.446C262.341 173.874 281.302 173.908 298.951 179.543L333.443 190.555C351.304 196.258 370.503 196.222 388.343 190.455L422.385 179.448C440.332 173.646 459.651 173.646 477.598 179.448L511.468 190.399C529.414 196.201 548.733 196.201 566.68 190.399L600.55 179.448C618.497 173.646 637.816 173.646 655.763 179.448L717.239 199.324" stroke="#00D5F5" stroke-width="2.42536"/>
<path d="M-2.77625 195.478L58.8402 175.806C76.7012 170.104 95.8998 170.139 113.74 175.907L147.01 186.663C164.746 192.397 183.827 192.466 201.603 186.861L237.315 175.6C254.985 170.028 273.946 170.062 291.596 175.697L326.087 186.709C343.948 192.412 363.147 192.376 380.987 186.609L415.029 175.602C432.976 169.8 452.295 169.8 470.242 175.602L504.112 186.553C522.059 192.355 541.378 192.355 559.324 186.553L593.194 175.602C611.141 169.8 630.46 169.8 648.407 175.602L709.883 195.478" stroke="#00D5F5" stroke-width="1.21268"/>
<path opacity="0.5" d="M-28.1773 133.839L37.0604 113.656C54.4429 108.278 73.0495 108.311 90.4127 113.751L128.033 125.538C145.295 130.946 163.787 131.011 181.086 125.725L221.221 113.461C238.416 108.207 256.792 108.239 273.968 113.553L312.846 125.582C330.229 130.96 348.835 130.926 366.199 125.486L404.637 113.444C422.104 107.971 440.828 107.971 458.295 113.444L496.566 125.434C514.033 130.906 532.756 130.906 550.224 125.434L588.494 113.444C605.962 107.971 624.685 107.971 642.152 113.444L707.252 133.839" stroke="#00D5F5" stroke-width="2.42536"/>
<path d="M-16.3847 128.974L48.853 108.791C66.2355 103.413 84.8421 103.446 102.205 108.886L139.826 120.673C157.087 126.081 175.58 126.146 192.879 120.86L233.014 108.596C250.208 103.342 268.585 103.374 285.761 108.688L324.639 120.716C342.021 126.094 360.628 126.061 377.991 120.621L416.429 108.579C433.897 103.106 452.62 103.106 470.088 108.579L508.358 120.569C525.826 126.041 544.549 126.041 562.016 120.569L600.287 108.579C617.754 103.106 636.478 103.106 653.945 108.579L719.045 128.974" stroke="#00D5F5" stroke-width="1.21268"/>
<path opacity="0.7" d="M-12.4932 107.959L52.7445 87.7753C70.127 82.3975 88.7336 82.4307 106.097 87.8706L143.718 99.6571C160.979 105.065 179.471 105.13 196.77 99.8444L236.905 87.5807C254.1 82.3267 272.476 82.3587 289.652 87.6728L328.531 99.7011C345.913 105.079 364.52 105.046 381.883 99.6058L420.321 87.5631C437.788 82.0906 456.512 82.0906 473.979 87.5631L512.25 99.5532C529.717 105.026 548.44 105.026 565.908 99.5532L604.178 87.5631C621.646 82.0906 640.369 82.0906 657.836 87.5631L722.936 107.959" stroke="#00D5F5" stroke-width="1.21268"/>
<path opacity="0.8" d="M-29.8452 142.846L35.3925 122.662C52.775 117.285 71.3816 117.318 88.7448 122.758L126.365 134.544C143.627 139.952 162.119 140.018 179.418 134.732L219.553 122.468C236.748 117.214 255.124 117.246 272.3 122.56L311.178 134.588C328.561 139.966 347.168 139.933 364.531 134.493L402.969 122.45C420.436 116.978 439.16 116.978 456.627 122.45L494.898 134.44C512.365 139.913 531.088 139.913 548.556 134.44L586.826 122.45C604.294 116.978 623.017 116.978 640.484 122.45L705.584 142.846" stroke="#00D5F5" stroke-width="4.85073"/>
<path opacity="0.7" d="M-28.6136 157.979L36.6241 137.795C54.0065 132.417 72.6131 132.451 89.9763 137.891L127.597 149.677C144.858 155.085 163.351 155.15 180.65 149.864L220.785 137.601C237.979 132.347 256.356 132.379 273.532 137.693L312.41 149.721C329.793 155.099 348.399 155.066 365.762 149.626L404.201 137.583C421.668 132.111 440.391 132.111 457.859 137.583L496.129 149.573C513.597 155.046 532.32 155.046 549.787 149.573L588.058 137.583C605.525 132.111 624.249 132.111 641.716 137.583L706.816 157.979" stroke="#00D5F5" stroke-width="2.42536"/>
<path opacity="0.7" d="M-44.5926 151.915L20.6451 131.732C38.0276 126.354 56.6342 126.387 73.9974 131.827L111.618 143.614C128.879 149.022 147.372 149.087 164.671 143.801L204.806 131.537C222 126.283 240.377 126.315 257.553 131.629L296.431 143.658C313.814 149.035 332.42 149.002 349.783 143.562L388.222 131.52C405.689 126.047 424.412 126.047 441.88 131.52L480.15 143.51C497.618 148.982 516.341 148.982 533.808 143.51L572.079 131.52C589.546 126.047 608.27 126.047 625.737 131.52L690.837 151.915" stroke="#00D5F5" stroke-width="2.42536"/>
<path d="M-40.1016 138.526L25.1361 118.343C42.5186 112.965 61.1252 112.998 78.4883 118.438L116.109 130.224C133.37 135.632 151.863 135.698 169.162 130.412L209.297 118.148C226.491 112.894 244.868 112.926 262.044 118.24L300.922 130.268C318.305 135.646 336.911 135.613 354.274 130.173L392.713 118.13C410.18 112.658 428.903 112.658 446.371 118.13L484.641 130.121C502.109 135.593 520.832 135.593 538.299 130.121L576.57 118.13C594.037 112.658 612.761 112.658 630.228 118.13L695.328 138.526" stroke="#00D5F5" stroke-width="1.21268"/>
<path opacity="0.7" d="M195.551 180.589C195.212 184.376 181.918 187.658 169.188 186.892C156.458 186.126 145.326 184.268 145.664 180.481C146.003 176.694 157.684 172.412 170.414 173.177C183.144 173.943 195.889 176.802 195.551 180.589Z" fill="#B3F0FA"/>
<path opacity="0.6" d="M190.085 180.065C190.056 180.386 189.882 180.722 189.557 181.067C189.233 181.411 188.767 181.755 188.174 182.09C186.989 182.76 185.323 183.379 183.349 183.89C179.404 184.913 174.258 185.496 169.339 185.2C164.406 184.903 159.557 184.427 155.976 183.661C154.184 183.277 152.721 182.822 151.725 182.287C150.72 181.747 150.247 181.156 150.304 180.518C150.334 180.193 150.499 179.847 150.803 179.488C151.108 179.13 151.544 178.766 152.1 178.408C153.212 177.692 154.779 177.009 156.653 176.434C160.4 175.285 165.347 174.573 170.263 174.869C175.193 175.166 180.239 175.77 184.016 176.665C185.907 177.113 187.469 177.631 188.54 178.215C189.075 178.507 189.479 178.812 189.74 179.124C190 179.435 190.113 179.748 190.085 180.065Z" fill="#00D5F5" stroke="#0B6573" stroke-width="0.30317"/>
<path opacity="0.5" d="M179.558 180.415C179.469 180.805 179.082 181.23 178.43 181.639C177.785 182.044 176.913 182.412 175.913 182.7C173.913 183.275 171.432 183.519 169.3 183.098C169.177 183.074 169.054 183.05 168.931 183.026C166.88 182.621 164.777 182.207 163.2 181.687C162.363 181.412 161.689 181.111 161.252 180.776C160.817 180.441 160.646 180.098 160.73 179.726C160.82 179.332 161.196 178.894 161.823 178.466C162.443 178.043 163.282 177.65 164.249 177.337C166.182 176.71 168.596 176.416 170.726 176.836C172.889 177.263 175.218 177.748 176.955 178.35C177.824 178.651 178.532 178.978 178.995 179.333C179.459 179.69 179.642 180.046 179.558 180.415Z" fill="#0B6573" stroke="#0B6573" stroke-width="0.30317"/>
<path d="M160.534 235.018C160.547 236.335 156.683 238.199 153.381 238.328C150.08 238.456 147.084 238.365 147.071 237.048C147.058 235.731 150.033 233.687 153.334 233.559C156.636 233.43 160.521 233.701 160.534 235.018Z" fill="#5068E7"/>
<path opacity="0.5" d="M182.099 121.954C182.091 121.822 181.958 121.578 181.463 121.279C180.993 120.996 180.297 120.726 179.413 120.502C177.648 120.056 175.211 119.812 172.532 119.966C169.855 120.119 167.151 120.683 165.135 121.376C164.124 121.723 163.305 122.097 162.751 122.456C162.474 122.637 162.28 122.802 162.162 122.946C162.042 123.091 162.031 123.176 162.032 123.208C162.034 123.233 162.049 123.302 162.175 123.412C162.301 123.522 162.505 123.642 162.799 123.761C163.384 123.999 164.235 124.201 165.277 124.354C167.354 124.659 170.105 124.756 172.797 124.602C175.488 124.448 177.893 124.03 179.605 123.486C180.464 123.213 181.125 122.915 181.558 122.618C182.015 122.305 182.105 122.073 182.099 121.954Z" fill="#0B6573" stroke="#0B6573" stroke-width="0.813701"/>
<path opacity="0.4" d="M204.463 115.531C204.292 115.027 203.77 114.54 203.001 114.259C202.244 113.981 201.303 113.928 200.388 114.238C199.474 114.547 198.646 115.226 198.101 115.987C197.54 116.769 197.354 117.523 197.513 117.994C197.662 118.433 198.178 118.783 199.043 118.921C199.882 119.054 200.924 118.958 201.876 118.636C202.82 118.317 203.572 117.783 204.03 117.198C204.492 116.61 204.627 116.017 204.463 115.531Z" fill="#0B6573" stroke="#0B6573" stroke-width="0.813701"/>
<path opacity="0.3" d="M151.18 128.592C151.18 127.982 150.967 127.328 150.625 126.833C150.278 126.33 149.851 126.061 149.446 126.061C149.038 126.061 148.541 126.36 148.121 126.903C147.71 127.435 147.446 128.11 147.446 128.697C147.446 129.842 148.468 130.704 149.446 130.704C150.344 130.704 151.18 129.823 151.18 128.592Z" fill="#0B6573" stroke="#0B6573" stroke-width="0.813701"/>
<path opacity="0.3" d="M129.655 125.024C129.655 124.683 129.537 124.313 129.349 124.036C129.155 123.75 128.942 123.635 128.777 123.635C128.609 123.635 128.353 123.77 128.113 124.086C127.883 124.389 127.74 124.77 127.74 125.088C127.74 125.699 128.279 126.156 128.777 126.156C129.196 126.156 129.655 125.722 129.655 125.024Z" fill="#0B6573" stroke="#0B6573" stroke-width="0.813701"/>
</g>
<g filter="url(#filter2_f_4_9992)">
<path d="M171.653 57.8473C96.41 138.388 142.681 270.29 251.749 286.175L286.719 291.269L-23.1564 257.365L171.653 57.8473Z" fill="url(#paint1_linear_4_9992)" fill-opacity="0.4"/>
</g>
<g opacity="0.2" filter="url(#filter3_f_4_9992)">
<path d="M196.969 306.226C277.045 230.489 239.014 95.9793 131.136 73.3841L96.5474 66.1396L403.736 119.128L196.969 306.226Z" fill="#DBF2FF"/>
</g>
</g>
</g>
<defs>
<filter id="filter0_d_4_9992" x="67.3051" y="67.1419" width="230.41" height="230.409" filterUnits="userSpaceOnUse" color-interpolation-filters="sRGB">
<feFlood flood-opacity="0" result="BackgroundImageFix"/>
<feColorMatrix in="SourceAlpha" type="matrix" values="0 0 0 0 0 0 0 0 0 0 0 0 0 0 0 0 0 0 127 0" result="hardAlpha"/>
<feOffset/>
<feGaussianBlur stdDeviation="12.1268"/>
<feComposite in2="hardAlpha" operator="out"/>
<feColorMatrix type="matrix" values="0 0 0 0 0.049375 0 0 0 0 0.292622 0 0 0 0 0.329167 0 0 0 0.5 0"/>
<feBlend mode="normal" in2="BackgroundImageFix" result="effect1_dropShadow_4_9992"/>
<feBlend mode="normal" in="SourceGraphic" in2="effect1_dropShadow_4_9992" result="shape"/>
</filter>
<filter id="filter1_f_4_9992" x="-49.8017" y="78.0016" width="818.195" height="207.479" filterUnits="userSpaceOnUse" color-interpolation-filters="sRGB">
<feFlood flood-opacity="0" result="BackgroundImageFix"/>
<feBlend mode="normal" in="SourceGraphic" in2="BackgroundImageFix" result="shape"/>
<feGaussianBlur stdDeviation="2.42536" result="effect1_foregroundBlur_4_9992"/>
</filter>
<filter id="filter2_f_4_9992" x="-35.2832" y="45.7205" width="334.129" height="257.675" filterUnits="userSpaceOnUse" color-interpolation-filters="sRGB">
<feFlood flood-opacity="0" result="BackgroundImageFix"/>
<feBlend mode="normal" in="SourceGraphic" in2="BackgroundImageFix" result="shape"/>
<feGaussianBlur stdDeviation="6.06341" result="effect1_foregroundBlur_4_9992"/>
</filter>
<filter id="filter3_f_4_9992" x="81.3889" y="50.9811" width="337.505" height="270.403" filterUnits="userSpaceOnUse" color-interpolation-filters="sRGB">
<feFlood flood-opacity="0" result="BackgroundImageFix"/>
<feBlend mode="normal" in="SourceGraphic" in2="BackgroundImageFix" result="shape"/>
<feGaussianBlur stdDeviation="7.57926" result="effect1_foregroundBlur_4_9992"/>
</filter>
<linearGradient id="paint0_linear_4_9992" x1="269.671" y1="156.274" x2="91.5588" y2="185.53" gradientUnits="userSpaceOnUse">
<stop stop-color="#00DDFE"/>
<stop offset="1" stop-color="#5F36D7"/>
</linearGradient>
<linearGradient id="paint1_linear_4_9992" x1="72.9141" y1="220.546" x2="161.372" y2="200.959" gradientUnits="userSpaceOnUse">
<stop stop-color="#0D0525"/>
<stop offset="1" stop-color="#2384CC"/>
</linearGradient>
<clipPath id="clip0_4_9992">
<rect x="91.5588" y="91.3955" width="181.902" height="181.902" rx="90.9511" fill="white"/>
</clipPath>
</defs>
</svg>
