<svg width="314" height="313" viewBox="0 0 314 313" fill="none" xmlns="http://www.w3.org/2000/svg">
<g filter="url(#filter0_d_4_9990)">
<g clip-path="url(#clip0_4_9990)">
<rect x="72.0663" y="85.3627" width="156.48" height="156.48" rx="78.2401" transform="rotate(-5 72.0663 85.3627)" fill="url(#paint0_linear_4_9990)"/>
<g opacity="0.2">
<path d="M156.697 181.833C156.572 180.399 154.341 178.767 152.906 178.893C151.471 179.018 149.138 179.216 149.263 180.651C149.389 182.086 151.925 184.214 153.36 184.089C154.795 183.963 156.823 183.268 156.697 181.833Z" fill="#FFB802"/>
<path d="M188.661 138.72C188.535 137.285 186.304 135.654 184.869 135.78C183.434 135.905 181.101 136.103 181.227 137.538C181.352 138.973 183.889 141.101 185.324 140.976C186.758 140.85 188.786 140.155 188.661 138.72Z" fill="#FFB802"/>
<path d="M214.572 198.499C214.447 197.064 212.216 195.433 210.781 195.558C209.346 195.684 207.013 195.882 207.139 197.317C207.264 198.752 209.801 200.88 211.235 200.755C212.67 200.629 214.698 199.934 214.572 198.499Z" fill="#FFB802"/>
<path d="M101.12 99.9043C101.245 101.339 103.476 102.971 104.911 102.845C106.346 102.72 108.679 102.521 108.553 101.087C108.428 99.6517 105.469 100.178 104.034 100.304C102.6 100.429 100.994 98.4695 101.12 99.9043Z" fill="#FFB802"/>
<path d="M196.28 93.1896C196.155 91.7548 193.923 90.1234 192.489 90.2489C191.054 90.3744 188.721 90.5725 188.846 92.0074C188.972 93.4423 192.58 95.8539 194.015 95.7283C195.45 95.6028 196.406 94.6245 196.28 93.1896Z" fill="#FFB802"/>
<path d="M98.9879 137.141C98.8624 135.706 100.776 133.712 102.211 133.587C103.646 133.461 105.978 133.251 106.103 134.686C106.229 136.121 104.101 138.657 102.666 138.783C101.231 138.908 99.1135 138.576 98.9879 137.141Z" fill="#FFB802"/>
<path d="M156.152 186.07C156.026 184.635 153.977 185.082 152.542 185.208C151.107 185.333 148.592 183.453 148.718 184.888C148.843 186.323 151.38 188.451 152.815 188.325C154.249 188.2 156.277 187.505 156.152 186.07Z" fill="#D66C14"/>
<path d="M106.14 203.928C106.014 202.493 107.302 200.685 105.867 200.81C104.432 200.936 100.885 200.717 101.01 202.151C101.136 203.586 103.672 205.715 105.107 205.589C106.542 205.464 106.266 205.363 106.14 203.928Z" fill="#D66C14"/>
</g>
<g opacity="0.2">
<path d="M183.26 180.141C182.204 179.162 182.284 176.399 183.263 175.343C184.242 174.286 185.829 172.565 186.885 173.544C187.942 174.523 188.067 177.832 187.088 178.888C186.109 179.945 184.317 181.12 183.26 180.141Z" fill="#FFB802"/>
<path d="M129.604 178.95C128.548 177.971 128.627 175.208 129.607 174.152C130.586 173.095 132.173 171.374 133.229 172.353C134.286 173.332 134.411 176.641 133.432 177.697C132.453 178.754 130.661 179.929 129.604 178.95Z" fill="#FFB802"/>
<path d="M160.933 236.076C159.877 235.097 159.956 232.335 160.936 231.278C161.915 230.222 163.502 228.5 164.558 229.48C165.615 230.459 165.74 233.767 164.761 234.824C163.782 235.88 161.99 237.056 160.933 236.076Z" fill="#FFB802"/>
<path d="M152.627 85.9983C153.683 86.9774 153.604 89.7402 152.625 90.7966C151.646 91.853 150.058 93.5742 149.002 92.5952C147.946 91.6161 150.176 89.6021 151.155 88.5456C152.134 87.4892 151.57 85.0192 152.627 85.9983Z" fill="#FFB802"/>
<path d="M88.9669 157.048C87.9105 156.069 87.9901 153.306 88.9692 152.249C89.9483 151.193 91.5353 149.472 92.5918 150.451C93.6482 151.43 93.3403 155.759 92.3612 156.815C91.3821 157.872 90.0234 158.027 88.9669 157.048Z" fill="#FFB802"/>
<path d="M183.347 107.149C182.291 106.17 179.542 106.459 178.563 107.516C177.584 108.572 175.988 110.285 177.045 111.264C178.101 112.243 181.41 112.118 182.389 111.061C183.368 110.005 184.404 108.128 183.347 107.149Z" fill="#FFB802"/>
<path d="M186.941 182.308C185.885 181.329 187.495 179.984 188.474 178.928C189.453 177.871 189.51 174.732 190.566 175.711C191.623 176.69 191.748 179.999 190.769 181.055C189.79 182.111 187.998 183.287 186.941 182.308Z" fill="#D66C14"/>
<path d="M231.716 153.755C230.66 152.776 228.442 152.684 229.421 151.628C230.4 150.571 232.402 147.635 233.459 148.614C234.515 149.593 234.641 152.901 233.662 153.958C232.683 155.014 232.773 154.734 231.716 153.755Z" fill="#D66C14"/>
</g>
<g opacity="0.2">
<path d="M242.254 143.637C241.197 142.658 241.277 139.895 242.256 138.839C243.235 137.782 244.822 136.061 245.878 137.04C246.935 138.019 246.627 142.348 245.648 143.405C244.669 144.461 243.31 144.616 242.254 143.637Z" fill="#FFB802"/>
</g>
<g filter="url(#filter1_f_4_9990)">
<path opacity="0.8" d="M48.3676 173.567L76.4808 158.735C94.1814 149.396 114.911 147.63 133.937 153.839V153.839C152.854 160.013 173.462 158.303 191.103 149.095L192.254 148.494C210.037 139.212 230.909 137.478 250.006 143.615V143.615C269.181 149.777 290.19 147.918 307.961 138.44V138.44C325.779 128.936 346.745 127.082 365.942 133.348V133.348C385.14 139.613 406.062 137.782 423.879 128.279V128.279C441.697 118.775 462.619 116.945 481.817 123.21L511.865 133.016" stroke="#FFB802" stroke-width="8.34561"/>
<path opacity="0.5" d="M27.8675 200.959L55.9808 186.127C73.6814 176.788 94.411 175.022 113.436 181.231V181.231C132.354 187.405 152.962 185.694 170.603 176.487L171.754 175.886C189.537 166.604 210.409 164.87 229.506 171.007V171.007C248.68 177.169 269.69 175.31 287.461 165.832V165.832C305.279 156.328 326.245 154.474 345.442 160.74V160.74C364.64 167.005 385.561 165.174 403.379 155.671V155.671C421.197 146.167 442.119 144.337 461.316 150.602L491.365 160.408" stroke="#FFB802" stroke-width="6.25921"/>
<path d="M41.3916 183.602L69.5049 168.77C87.2055 159.431 107.935 157.665 126.961 163.874V163.874C145.878 170.048 166.486 168.338 184.127 159.13L185.278 158.529C203.061 149.247 223.933 147.513 243.03 153.65V153.65C262.205 159.812 283.214 157.953 300.985 148.475V148.475C318.803 138.971 339.769 137.117 358.966 143.383V143.383C378.164 149.648 399.086 147.817 416.903 138.314V138.314C434.721 128.81 455.643 126.98 474.841 133.245L504.889 143.051" stroke="#FFB802" stroke-width="4.1728"/>
<path d="M34.5716 189.435L62.6849 174.602C80.3855 165.264 101.115 163.497 120.141 169.706V169.706C139.058 175.88 159.666 174.17 177.307 164.962L178.458 164.361C196.241 155.08 217.113 153.346 236.21 159.483V159.483C255.385 165.645 276.394 163.786 294.165 154.307V154.307C311.983 144.804 332.949 142.95 352.146 149.215V149.215C371.344 155.48 392.266 153.65 410.083 144.146V144.146C427.901 134.643 448.823 132.812 468.021 139.078L498.069 148.884" stroke="#FFB802" stroke-width="2.0864"/>
<path d="M36.9993 191.699L65.1125 176.866C82.8131 167.528 103.543 165.761 122.568 171.97V171.97C141.486 178.144 162.093 176.434 179.734 167.226L180.886 166.625C198.668 157.344 219.54 155.61 238.637 161.747V161.747C257.812 167.909 278.822 166.05 296.593 156.571V156.571C314.411 147.068 335.376 145.214 354.574 151.479V151.479C373.771 157.744 394.693 155.914 412.511 146.41V146.41C430.329 136.907 451.251 135.076 470.448 141.341L500.497 151.148" stroke="#FFB802" stroke-width="1.0432"/>
<path d="M32.1202 195.099L60.2335 180.267C77.9341 170.928 98.6637 169.162 117.689 175.371V175.371C136.607 181.545 157.214 179.835 174.855 170.627L176.007 170.026C193.789 160.744 214.661 159.01 233.758 165.147V165.147C252.933 171.309 273.943 169.45 291.714 159.972V159.972C309.532 150.468 330.497 148.614 349.695 154.88V154.88C368.892 161.145 389.814 159.314 407.632 149.811V149.811C425.45 140.307 446.372 138.477 465.569 144.742L495.617 154.548" stroke="#FFB802" stroke-width="1.0432"/>
<path opacity="0.7" d="M52.066 224.818L81.5496 209.679C99.6011 200.41 120.576 198.622 139.936 204.701L140.866 204.993C160.116 211.037 180.968 209.304 198.956 200.166L201.415 198.917C219.298 189.832 240.015 188.065 259.179 193.989L260.963 194.541C280.35 200.534 301.317 198.653 319.327 189.305L320.563 188.663C338.678 179.26 359.78 177.414 379.253 183.529L380.391 183.886C399.864 190 420.966 188.154 439.081 178.751L440.14 178.202C458.255 168.799 479.357 166.953 498.829 173.067L530.372 182.971" stroke="#FFB802" stroke-width="5.21601"/>
<path opacity="0.3" d="M46.8019 231.003L76.2855 215.865C94.337 206.596 115.312 204.808 134.672 210.886L135.602 211.178C154.852 217.223 175.704 215.49 193.692 206.352L196.151 205.103C214.034 196.018 234.751 194.251 253.915 200.175L255.699 200.727C275.086 206.72 296.053 204.839 314.063 195.491L315.299 194.849C333.414 185.446 354.516 183.6 373.989 189.714L375.127 190.072C394.6 196.186 415.701 194.34 433.817 184.937L434.875 184.388C452.991 174.985 474.092 173.139 493.565 179.253L525.108 189.157" stroke="#FFB802" stroke-width="2.0864"/>
<path d="M45.8139 232.604L75.2975 217.465C93.3491 208.196 114.324 206.408 133.684 212.487L134.614 212.779C153.864 218.823 174.716 217.091 192.704 207.952L195.163 206.703C213.046 197.618 233.763 195.851 252.927 201.775L254.711 202.327C274.098 208.32 295.065 206.439 313.075 197.091L314.311 196.449C332.426 187.047 353.528 185.2 373.001 191.315L374.139 191.672C393.612 197.786 414.713 195.94 432.829 186.537L433.887 185.988C452.003 176.585 473.105 174.739 492.577 180.853L524.12 190.757" stroke="#FFB802" stroke-width="0.521601"/>
<path d="M37.7413 237.143L67.2249 222.004C85.2764 212.735 106.252 210.947 125.612 217.026L126.542 217.318C145.792 223.362 166.643 221.629 184.631 212.491L187.09 211.242C204.973 202.157 225.69 200.39 244.854 206.314L246.638 206.866C266.025 212.859 286.992 210.978 305.003 201.63L306.238 200.988C324.354 191.586 345.455 189.739 364.928 195.854L366.066 196.211C385.539 202.325 406.641 200.479 424.756 191.076L425.815 190.527C443.93 181.124 465.032 179.278 484.505 185.392L516.048 195.296" stroke="#FFB802" stroke-width="0.521601"/>
<path d="M46.9944 239.978L76.478 224.839C94.5295 215.571 115.505 213.782 134.865 219.861L135.795 220.153C155.045 226.197 175.896 224.465 193.885 215.327L196.343 214.078C214.226 204.993 234.943 203.225 254.107 209.15L255.891 209.701C275.278 215.695 296.245 213.813 314.256 204.465L315.491 203.824C333.607 194.421 354.708 192.575 374.181 198.689L375.319 199.046C394.792 205.161 415.894 203.314 434.009 193.912L435.068 193.362C453.183 183.959 474.285 182.113 493.758 188.227L525.301 198.132" stroke="#FFB802" stroke-width="0.521601"/>
<path opacity="0.4" d="M43.9931 242.432L73.4766 227.294C91.5282 218.025 112.503 216.236 131.864 222.315L132.794 222.607C152.043 228.652 172.895 226.919 190.883 217.781L193.342 216.532C211.225 207.447 231.942 205.68 251.106 211.604L252.89 212.156C272.277 218.149 293.244 216.268 311.254 206.919L312.49 206.278C330.605 196.875 351.707 195.029 371.18 201.143L372.318 201.501C391.791 207.615 412.893 205.769 431.008 196.366L432.067 195.816C450.182 186.414 471.284 184.567 490.756 190.682L522.299 200.586" stroke="#FFB802" stroke-width="2.0864"/>
<path d="M43.5563 250.766L73.0399 235.628C91.0914 226.359 112.067 224.571 131.427 230.649L132.357 230.941C151.607 236.986 172.458 235.253 190.446 226.115L192.905 224.866C210.788 215.781 231.505 214.014 250.669 219.938L252.453 220.49C271.84 226.483 292.807 224.602 310.818 215.254L312.053 214.612C330.169 205.209 351.27 203.363 370.743 209.477L371.881 209.835C391.354 215.949 412.456 214.103 430.571 204.7L431.63 204.151C449.745 194.748 470.847 192.902 490.32 199.016L521.863 208.92" stroke="#FFB802" stroke-width="1.0432"/>
<path d="M41.0898 168.183L69.203 153.35C86.9036 144.012 107.633 142.245 126.659 148.454V148.454C145.576 154.628 166.184 152.918 183.825 143.71L184.977 143.109C202.759 133.827 223.631 132.093 242.728 138.231V138.231C261.903 144.393 282.913 142.534 300.683 133.055V133.055C318.501 123.552 339.467 121.698 358.664 127.963V127.963C377.862 134.228 398.784 132.398 416.602 122.894V122.894C434.419 113.391 455.341 111.56 474.539 117.825L504.587 127.632" stroke="#FFB802" stroke-width="2.0864"/>
<path d="M36.0175 165.305L64.1307 150.473C81.8313 141.134 102.561 139.368 121.586 145.577V145.577C140.504 151.751 161.112 150.041 178.753 140.833L179.904 140.232C197.687 130.95 218.559 129.216 237.656 135.353V135.353C256.83 141.515 277.84 139.656 295.611 130.178V130.178C313.429 120.674 334.395 118.82 353.592 125.086V125.086C372.79 131.351 393.711 129.52 411.529 120.017V120.017C429.347 110.513 450.269 108.683 469.466 114.948L499.515 124.754" stroke="#FFB802" stroke-width="1.0432"/>
<path opacity="0.5" d="M16.0123 126.918L45.4959 111.78C63.5475 102.511 84.5227 100.722 103.883 106.801L104.813 107.093C124.063 113.138 144.914 111.405 162.902 102.267L165.361 101.018C183.244 91.9331 203.961 90.1657 223.125 96.0901L224.909 96.6416C244.296 102.635 265.263 100.754 283.274 91.4055L284.509 90.7641C302.625 81.3613 323.726 79.5151 343.199 85.6294L344.337 85.9868C363.81 92.101 384.912 90.2549 403.027 80.8521L404.086 80.3025C422.201 70.8997 443.303 69.0535 462.776 75.1678L494.319 85.072" stroke="#FFB802" stroke-width="2.0864"/>
<path d="M23.3171 122.078L52.8007 106.939C70.8523 97.6706 91.8275 95.8822 111.188 101.961L112.118 102.253C131.368 108.297 152.219 106.565 170.207 97.4266L172.666 96.1776C190.549 87.0928 211.266 85.3254 230.43 91.2497L232.214 91.8013C251.601 97.7946 272.568 95.9136 290.578 86.5652L291.814 85.9238C309.929 76.521 331.031 74.6748 350.504 80.7891L351.642 81.1464C371.115 87.2607 392.217 85.4145 410.332 76.0117L411.391 75.4622C429.506 66.0594 450.608 64.2132 470.081 70.3275L501.623 80.2316" stroke="#FFB802" stroke-width="1.0432"/>
<path opacity="0.7" d="M24.2726 103.847L53.7562 88.7083C71.8077 79.4396 92.7829 77.6512 112.143 83.7301L113.073 84.0221C132.323 90.0663 153.174 88.3339 171.163 79.1956L173.621 77.9466C191.504 68.8618 212.222 67.0944 231.385 73.0187L233.17 73.5703C252.556 79.5636 273.523 77.6826 291.534 68.3342L292.77 67.6928C310.885 58.29 331.987 56.4438 351.459 62.5581L352.598 62.9154C372.07 69.0297 393.172 67.1835 411.287 57.7807L412.346 57.2312C430.461 47.8284 451.563 45.9822 471.036 52.0965L502.579 62.0006" stroke="#FFB802" stroke-width="1.0432"/>
<path opacity="0.8" d="M15.6029 134.732L45.0864 119.593C63.138 110.324 84.1132 108.536 103.473 114.615L104.403 114.907C123.653 120.951 144.505 119.219 162.493 110.08L164.952 108.831C182.835 99.7464 203.552 97.979 222.716 103.903L224.5 104.455C243.887 110.448 264.854 108.567 282.864 99.2188L284.1 98.5774C302.215 89.1746 323.317 87.3284 342.79 93.4427L343.928 93.8C363.401 99.9143 384.502 98.0682 402.618 88.6653L403.676 88.1158C421.792 78.713 442.893 76.8668 462.366 82.9811L493.909 92.8853" stroke="#FFB802" stroke-width="2.0864"/>
<path opacity="0.7" d="M17.5385 147.63L47.022 132.491C65.0736 123.222 86.0488 121.434 105.409 127.513L106.339 127.805C125.589 133.849 146.44 132.117 164.429 122.978L166.887 121.729C184.77 112.645 205.488 110.877 224.651 116.802L226.435 117.353C245.822 123.346 266.789 121.465 284.8 112.117L286.035 111.476C304.151 102.073 325.252 100.227 344.725 106.341L345.863 106.698C365.336 112.813 386.438 110.966 404.553 101.564L405.612 101.014C423.727 91.6112 444.829 89.765 464.302 95.8793L495.845 105.783" stroke="#FFB802" stroke-width="2.0864"/>
<path d="M8.60841 131.613L38.092 116.475C56.1436 107.206 77.1187 105.417 96.4789 111.496L97.4089 111.788C116.659 117.833 137.51 116.1 155.499 106.962L157.957 105.713C175.84 96.628 196.558 94.8606 215.721 100.785L217.505 101.336C236.892 107.33 257.859 105.449 275.87 96.1004L277.105 95.459C295.221 86.0562 316.322 84.21 335.795 90.3243L336.933 90.6816C356.406 96.7959 377.508 94.9497 395.623 85.5469L396.682 84.9974C414.797 75.5946 435.899 73.7484 455.372 79.8627L486.915 89.7668" stroke="#FFB802" stroke-width="1.0432"/>
</g>
<g filter="url(#filter2_f_4_9990)">
<path d="M138.189 50.608C79.7467 125.27 129.289 234.837 223.948 240.273L254.298 242.016L-13.7978 236.194L138.189 50.608Z" fill="url(#paint1_linear_4_9990)" fill-opacity="0.4"/>
</g>
<g opacity="0.2" filter="url(#filter3_f_4_9990)">
<path d="M178.506 261.563C241.451 190.655 198.775 78.2354 104.632 66.9602L74.4478 63.3451L341.672 85.7235L178.506 261.563Z" fill="#FFEAB3"/>
</g>
</g>
</g>
<defs>
<filter id="filter0_d_4_9990" x="51.2023" y="50.8606" width="211.251" height="211.251" filterUnits="userSpaceOnUse" color-interpolation-filters="sRGB">
<feFlood flood-opacity="0" result="BackgroundImageFix"/>
<feColorMatrix in="SourceAlpha" type="matrix" values="0 0 0 0 0 0 0 0 0 0 0 0 0 0 0 0 0 0 127 0" result="hardAlpha"/>
<feOffset/>
<feGaussianBlur stdDeviation="10.432"/>
<feComposite in2="hardAlpha" operator="out"/>
<feColorMatrix type="matrix" values="0 0 0 0 0.916667 0 0 0 0 0.420489 0 0 0 0 0.00763887 0 0 0 1 0"/>
<feBlend mode="normal" in2="BackgroundImageFix" result="effect1_dropShadow_4_9990"/>
<feBlend mode="normal" in="SourceGraphic" in2="effect1_dropShadow_4_9990" result="shape"/>
</filter>
<filter id="filter1_f_4_9990" x="6.80538" y="46.4647" width="525.913" height="206.331" filterUnits="userSpaceOnUse" color-interpolation-filters="sRGB">
<feFlood flood-opacity="0" result="BackgroundImageFix"/>
<feBlend mode="normal" in="SourceGraphic" in2="BackgroundImageFix" result="shape"/>
<feGaussianBlur stdDeviation="0.782401" result="effect1_foregroundBlur_4_9990"/>
</filter>
<filter id="filter2_f_4_9990" x="-24.2298" y="40.176" width="288.96" height="212.272" filterUnits="userSpaceOnUse" color-interpolation-filters="sRGB">
<feFlood flood-opacity="0" result="BackgroundImageFix"/>
<feBlend mode="normal" in="SourceGraphic" in2="BackgroundImageFix" result="shape"/>
<feGaussianBlur stdDeviation="5.21601" result="effect1_foregroundBlur_4_9990"/>
</filter>
<filter id="filter3_f_4_9990" x="61.4078" y="50.3051" width="293.304" height="224.298" filterUnits="userSpaceOnUse" color-interpolation-filters="sRGB">
<feFlood flood-opacity="0" result="BackgroundImageFix"/>
<feBlend mode="normal" in="SourceGraphic" in2="BackgroundImageFix" result="shape"/>
<feGaussianBlur stdDeviation="6.52001" result="effect1_foregroundBlur_4_9990"/>
</filter>
<linearGradient id="paint0_linear_4_9990" x1="112.213" y1="166.677" x2="245.353" y2="155.365" gradientUnits="userSpaceOnUse">
<stop stop-color="#F5610F"/>
<stop offset="1" stop-color="#FF9104"/>
</linearGradient>
<linearGradient id="paint1_linear_4_9990" x1="92.4037" y1="189.802" x2="140.109" y2="174.021" gradientUnits="userSpaceOnUse">
<stop stop-color="#772B06"/>
<stop offset="1" stop-color="#FF9A06"/>
</linearGradient>
<clipPath id="clip0_4_9990">
<rect x="72.0663" y="85.3627" width="156.48" height="156.48" rx="78.2401" transform="rotate(-5 72.0663 85.3627)" fill="white"/>
</clipPath>
</defs>
</svg>
